<?xml version="1.0" encoding="UTF-8"?>
<svg id="Layer_1" data-name="Layer 1" xmlns="http://www.w3.org/2000/svg" viewBox="0 0 1920 1080">
  <g id="react-group-1">
    <g id="react-group-2">
      <path id="react-path-5" d="M356.25,576c1.42,9.57,5,17.98,8.03,26.94,1.43,4.24,3.66,8.55,5.84,12.44,1.42,2.52,3.21,8.51,5.81,5.01.43,1.83-.14,2.72.46,4.41.84,2.38,5.23,5.35,7.14,7.18,1.84,1.77,3.86,3.12,5.84,4.69.39.31,1.2.06,1.52.41.59.67.04,1.6.29,1.91,3.1,3.89,8.48,6.66,12.51,9.52,5.76,4.09,11.49,8.18,17.1,12.46,4.44,3.39,8.67,6.96,13.07,10.35,2.11,1.63,3.7,3.24,5.27,5.35,1.94,2.63,2.24,2.75.89,5.46-2.42,4.85-6.78,7.99-9.69,12.34-3.32,4.97-5.46,10.52-9.97,14.67-2.02-4.55-4.62,2.1-1.27,1.4-1.56,4.61-5.03,8.54-7.35,12.88-2.74,5.13-5.74,9.79-8.99,14.61-.33-1.19-.66-2.39-.99-3.58-3.16.75-.63,3.07-.4,4.03.2.81.88.9.39,2.67-.37,1.33-1.64,2.46-2.45,3.56-1.82,2.48-3.51,5.04-5.23,7.59-1.69,2.51-2.28,4.58-3.37,7.04-.97,2.19-1.87,1.78-3.43,3.39-1.62,1.67-3.23,4.57-4.67,6.49-4.29,5.71-8.15,12.25-11.08,18.75-2.79,6.19-7.95,10.55-10.31,17.12-1.21,3.35-1.65,6.88-2.69,10.27-.98,3.16-2.58,6.11-3.18,9.39-.5,2.73-.18,5.88-.42,8.28-.2,1.95-1.02,4.95-.77,7.7.51,5.8,2.92,10.84,5.79,15.67-13.1,4.44-28.01,5.69-41.76,5.37-7.03-.17-15.03-.23-21.91,1.39-3.98.94-7.03,2.11-11.21,1.78-4.17-.33-8.34-.72-12.51-1.08,1.22-2.45,5.19-5.54,7.43-7.43,1.29-1.09,3.41-1.34,4.4-2.39,1.13-1.2,1.47-4.2,1.88-5.65,3.09-11.1,5.38-22.3,7.31-33.65,3.42-20.06,4.75-40.48,6.01-60.67.09-1.45.8-3.21.76-4.59-.06-2.23-.5-3.48-.33-5.6.11-1.34,1.71-3.14,1.64-4.32-.06-1.04-1.85-.25-1.84-1.82,0-2.25,3.22-5.49,3.89-7.51.26-.78-.7-1.83-.79-2.71v-.16s.74-3.16.77-3.29c.23-1.02,1.15-1.34,1.11-2.62-.04-1.1-1.66-2.54-.78-3.69.6-.78,2.77.47,3.26-.42.63-1.15-2.14-5.06-1.83-6.83.5-2.89,2.56-5.81,3.26-8.78.31-1.32-.03-3.39.99-4.48,1.67-1.78,3.13.04,5.54-.55-2.46-2.09-2.94-3.92-2.21-6.97.57-2.38,1.7-5.03,4.31-2.65-.39-3.56-.37-4.11,2.28-6.8,1.29-1.31,2.68-3.5,4.22-4.39.47-.49.93-.98,1.4-1.47.63.66,1.38,1.03,2.25,1.12,7.45-.4,11.16-1.92,18,2.54,2.88,1.88,5.76,3.29,8.24,5.75,2.76,2.73,4.99,5.95,7.96,8.51,3.31,2.86,6.58,5.2,9.53,8.48,2.44,2.71,4.79,5.78,8.06,7.43.25-3.92-1.89-7.42-3.77-10.85-.22-.41-1.86-1.51-1.82-1.39-.2-.69.55-1.28.32-1.89,2.84,2.56,5.77,6.37,9.02,8.29,5.3,3.13,2.95-2.98,1.93-6.13-2.88-8.97-8.11-17.56-14.15-24.8-10.57-12.66-28.2-26.8-45.08-18.83-16.72,7.9-25.53,21.17-30.33,38.81-5.57,20.48-8.13,40.05-8.65,61.27-.3,12.15-1.54,24.19-2.82,36.27-1.25,11.79-1.76,24.56-4.14,36.13-1.49-2.17-2.37-3.81-3.12-6.25-.3-.99.08-1.95-.44-2.93-.24-.45-1.45-.39-1.67-.8-1.85-3.34-4.46-7.94-5.31-11.79-.45-2.03-.04-3.21-.91-5.05-.81-1.73-1.23-.09-1.54-2.22-.04-.3,1.32-.78.9-2.17-1.06-3.49-1.81-.18-2.32-.2-1.05-.04,1.32-7.21,1.14-8.33-.22-1.29-.82-.59-1.11-1.53-.26-.85-.59-2.08-.79-3.27-.6-3.6-1.97-4.78-2.03-8.68-.07-4.71-1.82-7.74-2.6-12.23-.14-.83.76-1.76.6-2.48-.34-1.51-1.43-2.76-1.86-4.35-.89-3.33.88-6.21.64-9.42.04.53-1-2.36-1.06-2.62-.37-1.47-.21-3.43-.51-5.03-.28-1.5-1.2-3.5-.37-4.9.56-.96,1.84-.7,2.57-1.77-2.72-.88-2.15.08-3.13-2.92-.94-2.86-1.03-5.26,2.08-3.37-.78-1.93-2.24-4.3-2.56-6.37-.29-1.89.4-3.72.21-5.6-.53-5.04-2.08-8.1.78-12.99-3.77-1.93-2.14-8.65-2.72-12.3-.63-3.97-2.18-7.76.8-10.36-3.77-2.71-1.86-11.51-1.79-15.7.07-4.02-.25-8.09-.2-12.76.03-2.64-.71-4.45-1.34-7.06-.81-3.36.01-5.94-.26-9.19-.22-2.58-1.2-5.18-1.33-7.93-.14-2.81.1-5.96-.3-8.72-.33-2.28-.87-3.92-.93-6.38-.02-.73-.37-2.04-.22-2.72,0,.03,1.02-2.35,1.01-1.3.03-3.91-1.93-7.72-.9-12.48.84-3.91,1.55-3.27,5.49-3.02,3.11.19,6.22.4,9.33.41,4.04.02,17.02-2.78,19.94.06,2.42,2.36,1.01,13.51,1.18,16.88.27,5.48-4.98,7.16-6.44,12.76-2.77,10.68,1.81,24.77,14.32,25.68,11.67.85,22.86-8.74,21.26-20.53-.64-4.73-2.82-9.88-6.94-12.65-3.98-2.68-12.44-.66-15.21-3.89-1.29-1.51-.78-7.36-.93-9.33-.22-2.86-1.53-8.58.36-9.93,2.13-1.53,8.7-1.56,11.13-1.57,3.44,0,6.57,0,9.99-.58,7.56-1.28,15.09-1.23,22.52-2.9,7.37-1.66,14.18-3.4,21.13-6.37ZM446.32,576c1.54-.04,4.83,12.67,5.7,14.91,2.38,6.13,3.35,12.31,4.67,18.75,1.36,6.61,2.57,13.34,4.33,19.86,1.32,4.9,1.02,9.64,2.8,14.57-.47,3.05-.05,8.33-3.42,9.64-3.05,1.19-5.03-1.71-6.16-4.22-3.06-6.78-2.08-15.83-3.19-23.12-1.32-8.61-1.39-17.09-2.42-25.71-.91-7.59-3.99-17.19-2.32-24.67ZM313.24,401.85c3.34,3.77,8.25,2.19,12.66,1.77-1.87,4.25-4.55,8.79-4.65,13.54-.05,2.47,1.28,4.66,1.26,7.01-.02,2.33-1.91,4.51-2.81,6.68-4.03,9.72-5.01,22.89-5.16,33.32-.31,21.59,6.15,44.59,19.9,61.51,2.9,3.57,6.16,6.87,9.81,9.69,1.98,1.53,11.11,5.17,11.54,7.32.83,4.17-8.54,3.75-11.1,4.13-5.38.78-10.7,1.91-16.08,2.64-21.59,2.9-42.9,5.22-64.66,4.05-2.41-.13-6.91,1.07-9.19.11-2.67-1.13-1.76-3.38-1.7-6.02.17-6.76-.81-13.41-1.37-20.13-.46-5.44.79-4.71,4.77-7.72,4.12-3.11,8.15-8.89,9.49-13.84,3.83,3.09,1.06,4.75,1.6,8.72.67,4.84,3.94,4.04,6.09.81,3.35-5.02,3.05-12.96-.08-17.98-2.8-4.49-12.79-11.39-18.46-9.34-7.54,2.74.67,11.92,4.24,13.91-.88,2.54-5.75,4.77-7.92,6.17-3.01,1.94-6.93,3.06-10.41,4.13-9.3,2.86-18.33,3.28-27.93,1.87-9.22-1.35-19.78-4.35-25.73-11.91-2.57-3.27-4.94-8.24-2.47-12.34,2.22-3.69,7.72-3.94,10.42-7.52,1.17-1.54,1.73-3.59,2.8-5.08,1.74-2.43,1.04-2,4.32-1.72,5.31.45,10.97.79,16.2-.49,3.93-.96,7.76-2.76,11.6-3.9,4.08-1.22,7.95-3.77,11.11-6.53,7.28-6.36,14.41-13.27,21.15-20.2,6.7-6.89,10.99-15.76,17.27-23.07,7.11-8.28,13.95-18.86,24.37-23.42,5.99-2.62,5.88.15,9.13,3.82ZM338.55,429.38c1.01,1.06.37,7.14,1.34,9.08,3.71,7.45,10.21,5.81,16.93,4.24.58,5.97,1.03,12.7,3.44,18.26,1.08,2.49,2.78,4.62,3.65,7.22.55,1.65.33,3.73.95,5.26.67,1.65,2.38,2.93,3.37,4.56,1.2,1.97,1.83,3.81,3.42,5.53,3.46,3.77,8.17,6.96,10.82,11.46,1.09,1.84,1.28,3.21,1.25,5.36-.01.77-.55,3.6-.31,4.17.88,2.09,4.06,2.63,4.41,5.34.2,1.52-.63,1.34-.91,2.6-.34,1.52-.1,2.57-.65,4.26-.88,2.69-4.79,7.76-4.38,10.08-5.74,3.16-15.84,5.16-22.27,3.72-6.58-1.48-13.15-8.94-17.4-13.84-9.96-11.48-15.77-29.62-16.31-44.65-.28-7.62.74-15.28,1.1-22.89.2-4.29-.71-16.37,2.92-19.37.81-.67,7.94-1.14,8.65-.4ZM284.94,443.76c-8.86.51-16.47,14.38-14.83,22.49,1.35,6.65,3.62,1.51,5.35-1.35,2.04-3.37,5.72-7.45,10.1-6.59,4.86.96,6.1,6.89,8.09,10.64,3.62,6.85,4.74-.51,5.54-4.66-.64-8.13-3.62-21.14-14.24-20.53Z" style="fill: #7dae96; fill-rule: evenodd;"/>
      <g id="react-group-3">
        <path id="react-path-6" d="M819.2,858.39c-4.62,1.43-8.95,3.55-13.41,5.43-5.05,2.14-8.58,2.52-14.1,2.51-21.37-.03-42.52,1.07-63.92,1.5-5.85.12-11.78.18-17.63.07-2.36-.04-4.68-.31-7.03-.5-1.52-.13-8.14.78-9.02.25-2.48-1.49-1.01-11.11-1.31-14.19-.52-5.35-1.88-10.51-3.77-15.53-6.75-17.98-18.1-35.53-32.45-48.37,19.41-8.15,40.58-18.9,62.11-14.06,8.2,1.84,19.08,4.25,23.3,12.19,4.51,8.47,8.46,17.79,13.61,25.9,5.76,9.06,11.88,16.83,20.21,23.63,3.29,2.68,19.87,19.17,17.35,6.44-.81-4.08-3.79-7.87-6.18-11.21-1.21-1.69-7.75-7.25-6.73-9.22,1.14-2.2,12.93-3.75,15.45-4.46,5.22-1.45,10.41-2.99,15.6-4.51-1.88,3.54-12.1,16.94-5.57,20.37,2.4,1.26,8.61-3.2,11.24-3.98,4.48-1.33,8.58-.46,12.98.87-.11,2.16-4.36,2.19-5.77,3.67-2.06,2.16-3.51,7.99-1.9,10.58,3.02,4.82,14.69-.1,19.91,1.73-5.87,6.06-15.07,8.43-22.99,10.89h0ZM527.62,659.27c.06.13-.05.3-.75.91-.21-.77-.6-.94-1.06-.73.38-.41.69-.63,1.06.73.3-.26.54-.57.75-.91h0ZM529.4,656.73c-.14.46-.46.68-.95.67.03-.08.05-.16.07-.21.32-1.01.75-.84.61-2.7.19.31.34.62.23.94.31.47.32.91.03,1.31h0ZM477.46,744.01c.49-1.19.62-2.57,1.26-3.67-.62,1.11-.63,2.48-1.26,3.67h0ZM678.23,866.89c-7.73-.31-15.27-.17-23.01.17-16.52.72-33.12.83-49.61,2.15-8.07.65-15.82.9-23.91.62-7.07-.24-14.17.01-21.23-.58-7.74-.65-14.99-2.79-22.81-2.91-7.47-.11-16.37-.98-23.62.12-1.25.19-1.93.99-3.4,1.18-2.04.27-4.91-.57-7-.71-3.66-.25-7.72.16-11.29-.7-1.23-.29-2.09-.74-3.28-1.22-1.08-.43-3.48-.77-4.08-.92,3.41-1.27-4.15-3.86-4.76-4-.15.52.19,1.24.74,1.94-1.93-1.48.14-.94-3.03-2.44-1.33-.63-3.85-1.04-5.34-1.21-1.44-.16-2.21,0-2.86-.03.13-.15.26-.34.39-.6,1.06-2.18-2.16-4.66-3.97-3.2.21.43.55,1.21.96,1.99-.02-.02-.03-.04-.05-.06-.67-.77-1.93-2.75-3.19-4.09,1.59-.88-.36-2.07-1.09-3.3-.5.28-1.06.51-1.35.89.42-.87,1.45-1.66.85-3.36-.17-.49-.63-1.22-1.21-1.73.55.43,1.12.9,1.85.8-.92-1.4-1.26-1.92-1.61-3.32-.25-.98,1.13-1.94-.18-2.83.04-.93.59-5.19-1.72-3.7h0s0,0,0,0c1.48-4.53,4-9.21,5.88-13.65,4.37-10.32,8.85-20.72,13.42-30.96,7.55-16.93,15.44-33.81,24.13-50.29,8.62-16.33,18.02-32.12,26.15-48.68,7.84-15.97,16.99-31.25,24.89-47.2,3.72-7.51,8.71-13.72,9.97-22.45.41-2.83.54-8.72-3.74-7.66-2.78.69-6.67,7.65-8.47,9.92-1.61-2.21-10.68-15.18-13.11-7.45-2.09,6.63,10.98,9.51,5.76,16.19-.52.66-2.66,1.33-3.36,1.94-1.37,1.19-2.62,3.29-3.68,4.73-2.41,3.28-4.4,6.76-6.63,10.14-.42.64-1.95,2.08-2.07,2.82-.06.4.27.8.53,1.22-1.81,1.6-4.1,3.02-4.52,5.62.13.06.24.06.35.04-1.68,1.76-3.82,6.03-4.12,6.47-2.27,3.3-4.5,6.75-6.74,10.24-1.21,1.88-3.33,4.1-4.03,6.21-.24.73.46,2.04-.19,2.73-1.73,1.8-3.42,1.42-4.71,5.04-.51,1.42-.55,3.42-1.37,4.64-1.31,1.96-3.19,2.88-4.41,4.99-2.32,4-5.11,8.4-6.58,12.44,0,.02,0,.03-.01.05-.05-.32-.12-.66-.2-1.03-.83,1.49-1.66,2.98-2.49,4.47,1.44-.28,2.2-.67,2.55-1.31-.04.21-.11.44-.24.67-.73.34-1.51.55-2.31.64-.56.92-1.08,1.86-1.56,2.81-.24.48-1.04,3.43-1.38,5.67-.12-.87-.25-1.65-.26-1.75-1.05,2.03-2.11,4.05-3.16,6.08,1.91-1.47,1.8-1.72,3.62-1.75-2.29.05-5.76,3.26-6.08,6.36-.05.5.26,1.05.53,1.57-.06,0-.13-.02-.2-.02-2.4-.2-1.7.28-2.61,2.28.35-.14,2.37-.93,3.13-1.54.08.26.1.5-.03.71-.59.94-5.46.33-2.33,2.43-2.59-1.74-3.89,3.98-3.01,5.95-.7,1.01-1.53,1.94-2.31,2.87-1.92,2.29-2.99,4.03-4.25,6.82-2.14,4.75-4.7,9.47-7.05,14.14-.89,1.77-1.93,3.28-3.02,4.93-1.94,2.92-1.6,2.19-.07,5.37-.57-.19-1.42.26-2.24.92.45-.76,1.01-1.32,2.24-.92-1.94-4.04-3.6.88-4.49,3.2.04,0,.07-.01.11-.01-.12.18-.21.34-.27.47h0c-.91,1.88-1.99,3.03-1.21,5,.22-1.1,1.11-1.94,1.49-2.88-.53,2.3-3.04,5.05-3.79,6.57-.63,1.26-.72,2.59-1.49,3.96-.72,1.29-1.38,2.16-1.93,3.63-2.69,7.14-4,15.08-5.7,22.58-2.01,8.86-2.83,18.27-3.26,27.33-.13,2.63-.19,4.96.75,7.47.14.36,1.62,2.29,1.58,3-.2,3.69-7.13,2.92-9.79,2.81-4.24-.17-7.12.51-11.19,1.1-3.75.54-7.44.24-11.25,1.17-6.33,1.53-15.75,3.95-21.87.59-2.96-1.62-6.68-6.33-8.83-8.98-2.64-3.25-3.53-6.56-4.01-10.71-.81-7.09-.86-14.92,1.6-21.69,11.45-31.47,31.09-60.08,48.03-88.73,15.89-26.88,33.71-52.35,49.64-79.16,8.42-14.17,18.55-28.19,28.56-41.28,10.24-13.39,17.54-27.95,24.76-43.1,7.48,3.97,15.4,8.05,23.76,9.84,4.76,1.02,9.48.71,14.27,1.04,3.53.24,6.49,1.08,10.09,1.17,15.78.4,34.02-1.49,49.11-6.15,3.62-1.12,6.86-2.28,10.25-3.89,4.33-2.06,5.5-2.93,5.75,1.85.48,9.26,1.99,18.26,2.7,27.46.69,8.97,2.5,17.82,4.1,26.68.81,4.49,1.68,8.97,2.35,13.49.5,3.42,2.02,8.19,1.42,11.61-.67,3.78-4.25,7.61-6.3,10.84-2.08,3.27-4.17,6.53-6.24,9.81-3.89,6.14-7.76,11.97-12.35,17.6-8.51,10.45-15.76,21.37-23.83,32.16-8.57,11.45-15.7,23.83-24.11,35.4-4.44,6.11-8.99,11.88-11.9,18.76-2.42,5.71-7.28,10.96-10.25,16.61-3.9,7.42-8.87,14.22-12.75,21.67-2.71,5.21-7.93,10.51-8.48,16.56-.92,10.15,8.74,0,10.97-2.82,3-3.8,6.28-10.44,10.79-12.5,3.22-1.47,7.91-1.31,11.4-2.46,3.66-1.21,7.25-2.46,10.94-3.56,7.2-2.15,14.14-5.19,21.13-7.92,7.24-2.83,14.48-5.68,21.59-8.82,3.29-1.45,6.06-2.2,9.57-2.83,1.51-.27,6.92-2.83,8.11-2.61,2,.36,4.76,6.25,6.28,7.76,2.34,2.33,4.97,4.24,7.15,6.75,4.3,4.94,8.86,10.21,12.59,15.58,8.34,12,16.13,25.1,19.1,39.55,1.33,6.49-.22,6.92-6.49,6.67h0ZM461.42,851.21c-.05-.11-.08-.21-.1-.31.03.1.05.2.1.31.99-.59,1.25-.27,1.35.2-.5-.32-.96-.44-1.35-.2h0ZM459.12,844.51c-.04-.18-.06-.35-.07-.51.01.17.03.34.07.51.54-.36.99-.26,1.42,0-.46-.25-.96-.31-1.42,0h0ZM460.12,840.13c.3-.02.65-.19,1.04-.58-.32.32-.62.66-.89,1.01,0-.04.01-.08.01-.13,0-.08-.06-.19-.16-.3h0ZM361.82,803.41c-2.25,5.3-3.18,11.1-5.09,16.52-1.46,4.15-2.04,8.25-2.43,12.59,1.33.98,1.3,1.85-.09,2.59-.1.94-.13,1.89-.1,2.84-.36,2.76.17,5.17.9,7.82,1.16,4.2,2.63,7.22,4.78,10.85-13.08,4.44-27.98,5.69-41.71,5.37-7.42-.17-15.74-.19-22.97,1.64-7.78,1.97-14.61,1.15-22.6.46,1.17-2.35,5.63-6.28,7.89-7.91,1.15-.83,3.04-.97,3.92-1.9,1.25-1.33,1.39-3.9,1.87-5.65,3.08-11.1,5.37-22.29,7.3-33.64,3.41-20.01,5-40.5,6.01-60.66.09-1.71.97-3.62.92-5.24-.06-2.12-.66-2.82-.49-4.95.11-1.39,1.78-3.28,1.66-4.52-.08-.78-1.97-.11-1.86-1.62.18-2.34,3.2-5.42,3.89-7.51.31-.93-.83-1.86-.8-2.88,0,.29.75-3.15.78-3.28.23-.99,1.16-1.4,1.11-2.62-.05-1.1-1.65-2.54-.78-3.69.88-1.16,2.7.59,3.25-.42.63-1.15-2.14-5.05-1.83-6.83.54-3.1,2.65-6.44,3.48-9.59.31-1.18-.19-2.64.77-3.66,1.67-1.78,3.12.05,5.54-.55-2.39-2.03-2.92-3.99-2.21-6.97.58-2.42,1.69-5.04,4.3-2.65-.34-3.15-.71-3.47,1.55-6.1,1.95-2.27,4.48-4.99,6.82-6.73,3.49-2.6,9.07-3.94,13.22-4.25,4.52-.33,10.08,2.09,13.51,5.51,4.16,4.16,9.55,7.19,14.27,11.16,5.04,4.24,9.38,9.29,14.22,13.78.99.92,2.83,3.51,4.36,3.06,2.51-.72.48-4.47-.07-6.13-3.91-11.84-10.93-23.77-20.59-31.84-4.98-4.17-9.94-9.44-15.73-12.47-4.68-2.45-8.33-2.07-13.31-2.24-4.25-.15-5.13-.4-8.92,1.39-2.69,1.27-5.35,2.51-7.88,4.06-4.06,2.48-8.24,5.49-11.24,9.24-7.98,9.97-11.09,22.66-14.23,34.81-3.45,13.37-5.83,26.43-6.24,40.3-.43,14.11-1.08,28.02-2.47,42.08-.72,7.31-1.56,14.6-2.5,21.89-.87,6.72-.92,13.94-2.27,20.53-1.7-2.48-2.23-4.4-3.18-7.08-.63-1.8-1.28-1.74-2.2-3.07-1.95-2.81-4.38-8.14-5.15-11.61-.47-2.12-.04-3.19-.91-5.05-.27-.58-1.73-.13-1.96-1.04-.17-.66.75-1.16.71-1.39-.1-.52,1.33-1.09.1-2.72-1.74-2.31-.85.59-1.79.55-.78-.03,1.57-8,1.29-9.16-.1-.41-1.43-.46-1.54-.84-.32-1.15-.25-2.81-.57-4.06-.77-3.04-1.92-4.26-1.98-7.74-.07-4.59-1.78-7.85-2.6-12.23-.16-.84.77-1.75.6-2.48-.35-1.48-1.45-2.78-1.85-4.35-.78-3.02.26-7.29.05-9.75-.19-2.15-.79-5.64-1.19-8.31-.65-4.35.51-2.93,2.4-5.67-2.62-.85-2.29-.1-3.12-2.92-.97-3.25-.88-5.17,2.07-3.37-.78-1.93-2.24-4.3-2.56-6.37-.3-1.92.41-3.69.21-5.6-.54-5.17-2.16-7.97.78-12.98-3.77-1.93-2.13-8.59-2.72-12.3-.64-4.01-2.18-7.75.8-10.36-3.07-2.21-1.85-8.53-1.84-11.91,0-1.53.52-4.23.39-5.59-.09-.96-.74-1.6-.93-2.71-.7-4.13.84-8.22-.08-12.33-1.04-4.63-1.17-8.58-1.52-13.12-.35-4.4-1.03-8.97-1.32-13.48-.22-3.35-1.52-6.97-.92-10.43.05-.27.84-2.74.87-2.18-.04-.89-.69-1.99-.72-2.53-.21-4.01-.29-7.28-.12-11.35,0,0-.02,0-.03,0,.5-.3.76-.93.79-1.91,3.75-.36,7.86.55,11.65.65,4.09.11,8.16-.1,12.24-.28,2.63-.12,8.29-1.37,10.29.83,1.45,1.59.54,9.77.63,11.89.11,2.51,1.39,6.46-.08,8.65-.91,1.36-2.97,1.91-4.04,3.41-.65.91-1.17,2.44-1.52,3.43-1.04,2.98-1.45,6.2-1.29,9.35.75,14.74,12.56,21.51,25.83,15.57,11.55-5.17,14.7-20.82,4.77-29.59-2.34-2.06-4.83-2.59-7.81-3.1-1.9-.32-7.07-.13-8.31-1.48-1.23-1.34-.93-5.53-1.07-7.27-.22-2.8-1.34-6.95-.73-9.65-1-2.25-.33-3.2,2-2.85.74-.15,1.48-.3,2.22-.45,1.86-.34,3.69-.74,5.58-.87,3.37-.23,6.66.17,10.03-.28,3.31-.44,6.55-1.27,9.86-1.7,3.52-.46,6.98.05,10.46-.55,7.23-1.24,15.01-2.9,21.77-5.75,1.81-.76,4.88-2.95,6.9-2.59,2.41.43,1.76,1.97,2.46,4.26,3.85,12.71,11.84,25.26,20.3,35.36,7.99,9.54,18.52,17.22,28.04,25.22,5.77,4.85,11.32,9.95,16.68,15.25,3.89,3.85,8.06,9.86,13.09,12.08,1.15.04,5.56-.46,6.37.36.93.95.87,1.49.5,2.08,1.07-2.81-4.01-2.34-6.87-2.44.32.55,3.54,6.99,4.33,3.4.46.27.92.55,1.38.83-2.28,5.04-5.24,10.1-8.45,14.61-2.34,3.29-5.36,5.67-7.46,9.08-2.65,4.3-4.86,8.77-8.22,12.61-6.7,7.65-10.43,17.94-16.27,26.43-2.81,4.08-4.27,7.87-7.19,11.93-2.28,3.18-5.98,7.2-7.32,10.85-.53,1.46.04,2.73-.93,4.08-.61.86-2.44,1.78-3.3,2.67-3.41,3.52-6.07,8.55-8.75,12.7-2.85,4.42-4.84,9-7.25,13.6-2.48,4.72-6.58,8.06-8.72,13.12h0ZM273.02,823.56c-1.77.03-2.44.04-2.64-.74-.06-.23-.08-.54-.07-.93,0,.4,0,.7.07.93.2.78.86.77,2.64.74h0ZM273.24,816.95c.18.5-.92,1.34-3.86,1.03,2.91.31,4.02-.53,3.86-1.03h0ZM266.02,833.54c.26.23.52.48.77.73-.25-.25-.5-.49-.77-.73h0ZM247.69,868.24c-2.39-.84-8.62-2.32-12.67-4.06,1.81.51,3.69.92,4.41,1.18,2.75.96,5.5,1.93,8.26,2.89,3.9-14.05,18.53-19.41,31.06-24.6-6.03-.25-8.19-5.49-11.84-9.23,3.64,3.73,5.83,8.98,11.84,9.23-12.52,5.19-27.16,10.55-31.06,24.6h0ZM234,854.09c-.14.23-.27.46-.41.72-.37.7-1.78,3.82-2.37,5.87-.12-2.11,1.13-4.57,2.78-6.59h0ZM247.78,587.28c.22-.09.4-.1.57-.09-.65.03-.83.81-.86,1.89-.57-.6-.7-1.4.29-1.79h0ZM293.24,619.75c4.27,2.12,8.4,3.35,12.47,5.91-4.99,3.88-20.93,10.15-20.45-1.84.06-1.4.87-5.15,2.15-5.98,1.94-1.26,4.14,1.08,5.83,1.92h0ZM244.41,563.9c18.78,6.55,40.66,4.93,59.75,1.74,20.51-3.43,40.99-5.46,60.86-11.89.02,2.77,1.22,5.66-.97,7.94-1.72,1.79-5.44,2.13-7.71,2.88-5.94,1.97-11.04,4.84-17.25,6.02-6.95,1.32-13.9,1.29-20.92,2.07-2.54.28-4.93.74-7.32,1.2-3.3.05-5.89.5-9.19,1.41-11.8.06-23.52.41-35.27-1-5.97-.71-11.87-1.59-17.85-2.2-5.6-.57-4.35-2.99-4.12-8.18h0ZM237.23,513.49c-11.06,3.06-22.47,2.14-33.35-1.36-7.87-2.53-18.31-6.23-19.96-15.81-1.09-6.32,2.69-7.46,7.15-10.09,2.13-1.26,3.17-2.2,4.6-4.33.85-1.26,1.61-4.43,2.57-5.3,2.33-2.11,9.67-.26,13.31-.42,5.42-.24,9.1-2.07,14.09-3.67,8.81-2.84,14.39-6.29,21.23-12.79,6.66-6.33,14.47-12.76,19.85-20.22,6.03-8.35,11.79-16.47,18.36-24.43,4.86-5.9,13.69-17.71,22.42-17.66,4.38.03,3.73,4.16,7.21,6.26,3.18,1.92,7.33.58,10.82.25-2.3,5.23-5.49,10.61-4.36,16.53.63,3.32.97,4.46-.33,7.6-1.18,2.87-2.46,5.41-3.2,8.47-2.85,11.96-4.21,25.42-3.01,37.65,2.07,21.17,9.33,43.03,25.2,57.98,3.62,3.41,7.6,6.13,12.03,8.37,4.42,2.24,4.79,4.57-.69,5.56-10.66,1.95-21.49,3.27-32.23,4.72-10.73,1.44-21.64,2.95-32.46,3.17-5.35.11-10.67.78-16.02.4-2.66-.19-5.31-.67-7.98-.74-2.33-.06-5.81,1.1-7.99.18-3.4-1.44-1.71-11.38-1.96-14.84-.29-3.96-2.79-11.39-1.3-15.14,1.04-2.63,4.87-3.73,6.86-5.78,3.26-3.36,6.34-7.34,7.58-11.92,4.12,3.33.58,5.46,1.83,9.52,1.37,4.43,3.88,3.04,5.86,0,3.29-5.07,3.07-12.91-.08-17.97-1.82-2.92-4.78-5.12-7.82-6.69-2.46-1.27-7.9-3.75-10.62-2.65-7.39,2.98.48,11.8,4.23,13.9-.9,2.61-7.3,6.36-9.74,7.48-3.62,1.65-8.21,2.67-12.1,3.75h0ZM338.59,432.72c.1,1.42.25,2.77.72,4.13.96,2.77,2.87,5.17,5.5,6.54,5.11,2.66,15.47-1.17,19.96-4.31,0,9.51,1.7,17.08,4.43,26.1,2.64,8.73,8.04,15.83,12.64,23.58,2.38,4.02,4.57,8.17,7.94,11.47,3.42,3.35,3.99,4.64,3.68,9.58-.51,8.15-4.39,13.7-11.72,17.07-5.81,3.22-17.8,5.84-24.13,3.15-6.65-2.83-13.13-10.15-17.44-15.79-9.79-12.81-14.75-32.1-14.16-48.02.31-8.29.75-16.78,1.54-25.05.58-6.02.37-14.68,9.13-11.96,2.83.88,1.7.22,1.93,3.51h0ZM372.19,543.93c.84-1.72,8.28-3.45,9.57-2.44,1.96,1.53,2.04,10.46,2.73,13,1.09,4.03,2.53,8.02,4.27,11.82,3.64,7.98,8.86,16.21,15.05,22.43,6.42,6.44,13.79,10.89,21.58,15.51,2.23,1.32,4.38,2.91,6.67,4.11.96.5,2.74.74,3.49,1.49,1.87,1.87,1.01,5.71.98,8.14-.09,9.75-.06,19.19,1.24,28.81-7.63-5.91-14.53-13.41-21.33-20.3-7.13-7.22-16.3-11.99-23.06-19.64-6.15-6.96-10.99-15.07-15.5-23.12-1.98-3.53-5.75-8.02-5.88-12.15-.15-4.45,1.88-9.15,1.9-13.76.02-3.26-2.96-11.33-1.71-13.89h0ZM463.86,643.48c-.46,2.94-.09,9.26-4.19,9.89-2.82.44-4.55-2.24-5.59-4.48-3.12-6.78-2.09-15.81-3.26-23.09-1.38-8.59-1.41-17.07-2.47-25.67-.94-7.59-4.07-17.16-2.36-24.64,1.55-.04,5.73,14.59,6.63,16.91,1.86,4.78,3.99,8.8,5.6,13.75,2.13,6.56,3.97,12.82,4.95,19.69.69,4.82,3.27,13.39.69,17.64h0ZM486.52,611.13c-3.82,5.93-7.95,12.12-13.34,17.07,0-2.77-2.07-11.77-.67-13.91,1.67-2.55,11.16-2.67,14-3.16h0ZM338.24,377.42c3.25-1.47,6.87-1.94,10.15-3.46,3.13-1.46,5.46-2.34,8.93-2.62,12.08-.99,24.38,2.1,35.56,5.48,6.15,1.86,11,5.94,16.2,9.47,5.38,3.65,8.32,6.84,10.66,13.02,5.04,13.3,8.13,25.88,10.14,39.9,2.03,14.23-1.27,28.61-1.06,42.87.2,14.07,1.21,28.71,5.68,42.11,3.46,10.36,9.58,27.03,22.49,28.06,12.25.98,22.62-11.65,27.68-21.14,13.39-25.07,18.42-53.73,19.15-81.87,1.89-9.42,2.97-19.57,6.25-28.6,3.64,5.7,6.62,11.81,9.97,17.69,3.68,6.45,3.44,11.71,3.12,19.03-.25,5.7-2.26,11.14-2.99,16.81-.84,6.55-2.39,12.93-2.77,19.55-.44,7.8,0,15.68-.66,23.46-.55,6.54-2,13.11-3.04,19.59-1.02,6.3-1.14,12.5-.99,18.78.15,6.08,2.25,11.98,7.4,15.23-7.65,9.44-17.19,23.35-30.01,25.59-4.3.75-8.31,1.33-12.66,1.65-3.54.26-7.67,2.24-10.73.04-5.25-3.8-6.29-12.26-8.27-17.8-1.37-3.83-14.99-35.19-22.16-26.3-1.28,1.58-.98,7.39-1.17,9.62-.28,3.21-.15,6.48-.25,9.71-.13,4.11-.49,8.27-.21,12.37.17,2.47,1.66,5.15-1.14,5.74-2.59.55-8.06-4.6-9.95-5.94-2.53-1.79-5.26-3.13-7.83-4.86-5.28-3.55-9.46-8.01-13.22-13.07-3.78-5.09-7.14-10.81-9.7-16.62-1.3-2.95-2.36-5.97-3.44-9.01.02.07-1.61-3.75-1.52-4.02.29-.85,3.74-2.27,4.6-2.95,9.75-7.69,11.7-26.83,9.11-38.02-1.57-6.77-6.76-12.72-10.44-18.48-3.56-5.57-7.33-11.02-10.28-16.95-3.26-6.53-5.77-13.38-8.69-20.06-1.41-3.22-3.1-4.88-1-7.83,1.29-1.81,3.96-2.55,5.11-4.53,1.16-1.99,1.28-5.84-.8-7.26-2.28-1.56-5.59.62-7.67,1.47-2.78,1.13-5.56,1.68-8.41,2.55-3.23.99-6.13,3.18-9.55,3.18,1.84-6.34,9.8-5.74,12.38-11.64,1.76-4.03,1.53-11.53-3.96-12.19-3.12-.38-5.58,2-7.9,3.6-3.06,2.1-5.36,2.49-8.94,3.15-1.32.24-3.46,1.48-4.71,1.06-2.03-.68-.86-.26.2-1.93,1.58-2.48,5.31-4.9,7.57-6.71,5.07-4.07,12.11-7,16.5-11.73,2.91-3.13,4.33-13.64-1.19-15.32-2.21-.67-5.82,1.52-7.99,2.19-3.67,1.13-7.4,2.04-11.02,3.33-6.43,2.3-12.59,5.03-19.11,7.09,3.71-5.29,10.77-9.85,16.62-12.5h0ZM555.51,375.87c0,3.63,1.39,10.54-.18,13.84-1.41,2.97-9.98,4.63-13,5.77-9.8,3.68-19.51,7.78-29.53,10.82,10.32-15.29,25.66-24.16,42.71-30.44h0ZM554.06,326.51c-2.54,3.65-6.95,8.59-12.11,6.87-5.56-1.86-9.92-10.38-7.08-15.79,2.43-4.62,9.36-7.52,13.64-3.88.93.79,1.54,2.82,2.44,3.45.57.4,1.48-.67,2.18-.24,2.07,1.26,2.87,4.33,5.85,4.07,1.38-.12,5.81-3.73,6.72-4.65,2.43-2.47,1.58-5,1.96-8.25.53-4.47,3.61-5.16,7.17-7.47,3.38-2.2,6.1-5.48,9.44-7.59,3.99-2.53,1.7.68,5.35.99.66.06,2.13-2.13,3.27-2.09,1.48.05,2.12,1.03,2.97,2.11,1.84,2.34.49,3.07,3.69,3.61,2.31.39,3.74-1.29,5.72-1.25,1.62-1.83,4.01-5.65,6.9-4.53,1.96.76,2.66,4.86,3.08,6.58,1.59,6.49,1.47,14.12,1.53,20.77-3.72-2.61-4.2-4.36-5.36-8.57-.75-2.73-2.58-6.75-4.57-2.64-.56,1.17-.08,2.95-.45,4.23-.43,1.49-1.47,2.22-1.63,3.84-.39,3.93,2.83,5.28,5.61,7.19-2.59,2.79-10.05.69-8.06,6.65,2.1,6.3,10.18,2.81,14.21,1.23,3.44,13.02-11.83,19.3-21.13,22.86-5.46,2.09-7.6,3.26-8.35,9.63-.64,5.46.09,11.06,2.1,16.17.8,2.05,1.57,4.84,2.67,6.74.93,1.6,2.78,1.72,3.4,2.61,2.3,3.3.64,10.46.37,14.43-.73,10.83-4.11,20.7-5.56,31.27-.74,5.41-2.97,10.47-3.93,15.81-.88,4.9-1.22,9.53-5.35,13.04-8.3,7.05-14.72-3.36-17.6-10.2-4.1-9.74-4.51-22.54-3.83-32.93.74-11.29,5.9-22.14,6.17-33.35.29-11.99-1.52-23.37-4.52-34.95-1.31-5.06-3.22-9.6-4.84-14.5-1.32-4,.87-7.62-2.08-11.26h0ZM575.65,207.94s0,.02,0,.03c-.05-.06-.11-.12-.16-.18.06.07.11.12.16.16h0ZM575.89,206.82c-.12-.85-.4-1.91-.58-2.39.45.28.96.51.98.8.05.83-.19,1.22-.4,1.59h0ZM588.22,208.95c-.09.05-.17.1-.26.15-.21,0-.38-.04-.53-.11.06.01.12.02.2.03.2.01.4-.02.59-.07h0ZM594.66,206.83c-1.15,0-2.37-.12-3.72.47.21-.13.43-.24.64-.32.6-.21,1.88-.19,3.07-.15h0ZM529.31,523.58c.25-5.42.24-7.05,4.5-10.55,3.55-2.91,6.99-5.97,10.58-8.84,7.95-6.36,16.44-13.09,25.47-17.84,5.06-2.66,18.87-8.02,15.38,2.48-3.29,9.91-9.65,18.71-15.12,27.51-5.58,8.97-11.16,17.96-16.95,26.79-2.52,3.84-5.18,7.61-7.59,11.52-2.37,3.85-2.62,6.45-7.48,4.85-3.54-1.16-7.53-2.57-10.87-4.08-2.93-1.32-2.75-2.13-2.84-5.58,1.81-8.9,4.5-17.07,4.92-26.28h0ZM551.99,415.08c-1.23,4.96-10.07,5.55-14.83,6.51-.82.17-4.97,1.51-5.75,1.05-1.53-.91-.78-3.54-1.43-4.81-3.57-6.97-3.62,1.94-4.64,4.04-2.78,5.75-7.04-5.76-8.61-8.58-1.2-2.17-2.49-3.27-1.25-5.09,1.04-1.52,6.8-2.56,8.57-3.21,6.46-2.39,12.9-4.82,19.34-7.25,2.77-1.05,11.31-6.53,11.22-1.26-.92,6.06-1.16,12.67-2.64,18.6h0ZM547.16,474.31c-2.72.84-10.1,4.23-12.85,2.63-2.32-1.35-.72-6.07-.46-8.53.49-4.64.42-9.68.16-14.33-.39-6.87-.96-7.41,5.82-9.26,2.62-.71,10.61-4.58,12.56-2.4.91,1.02.52,4.26.72,5.49.43,2.67,1.18,5.28,2.15,7.8,1.69,4.36,4.15,8.27,6.72,12.15-4.62,2.84-9.67,4.84-14.83,6.45h0ZM531.81,425.75c1.17-1.69,7.01-1.93,8.94-2.34,3.41-.72,6.83-1.44,10.24-2.16.18,4.16,2.53,15.01-.46,18.01-1.68,1.69-7.31,2.12-9.69,2.71-2.59.64-5.19,1.27-7.79,1.89-.29-4.01-.54-8.02-.97-12.01-.16-1.47-1.24-4.74-.29-6.11h0ZM532.49,480.63c1.8-2.07,6.65-2.01,9.36-2.64,4.3-1.01,8.38-2.38,12.45-4.08,2.28-.95,6.77-4.21,9.29-3.39.71.23,2.18,3.14,2.72,3.68.92.93,2.1,1.57,3.17,2.3,2.93,2.03,4.71,2.66,8.17,3.35-18.09,7.42-32.62,20.62-47.59,32.79-1.06-.89-.47-8.85-.36-10.68.22-3.39.36-6.82.62-10.22.21-2.79.26-8.93,2.17-11.13h0ZM587.42,552.8c-.55,3.09-.63,7.33-1.95,10.18-1.21,2.61-1.07,2.43-4.29,2.51-4.08.1-8.75.78-12.7-.46,3.52-7.79,6.46-16.25,11.28-23.35,1.51-2.23,4.44-7.94,7.61-7.6,3.18.34,2.48,3.53,2.23,5.84-.47,4.31-1.42,8.62-2.18,12.88h0ZM603.3,431.36c2.45-16.79,2.24-33.21,2.24-50.13,3.91.52,8.21.19,11.98,1.3-1.22,3.88-4.72,7.38-1.25,11.06,3.52,3.74,11.74,5.38,16.51,6.76,5.58,1.61,11.27,3.58,17.01,4.54,2.58.43,5.39.85,7.99.35,4.12-.79,4.48-1.88,7.19,2.36.01.02.04.06.05.08-.78-.45-3.26-.18-2.6-.16.1.34.24.68.33,1-.73-.6-2.35-1.11-2.57-1.15-2.69-.47-6.11.73-8.7,1.33-5.81,1.34-11.58,2.81-17.22,4.8-4.74,1.67-9.43,3.55-13.96,5.75-3.49,1.7-11.55,4.69-12.65,8.85-2.11,7.97,18.96,14.03,24.09,16.73,4.85,2.55,3.32,6.33,3.38,11.39.06,5.5.56,10.95.18,16.44-.3,4.25-.62,3.59-4.86,3.52-3.18-.06-6.36-.18-9.53,0-4.48.27-9.08.89-13.28,2.52-6.29,2.44-18.36,14.03-6.33,17.57,4.96,1.46,11.35.92,16.42.57,4.41-.3,11.31-2.31,15.56-.8,2.22-.63,3.02.18,2.4,2.42.1,1.54.2,3.07.31,4.6.21,3.09.41,6.17.62,9.26.42,6.32.84,12.64,1.26,18.96-3.69-5.23-8.77-15.56-16.64-14.38-6.75,1.01-10.75,11.49-12.92,16.89-1.77,4.39-2.91,8.99-4.11,13.56-1.15,4.4-1.57,10.61-3.67,14.59-2.07,3.92-4.94,2.61-9.18,3.01-5.3.5-3.16-2.46-2.32-6.96,1.28-6.85,5.82-18.68,1.44-25.07-5.59-8.16-13.48,6.96-15.62,11.04-2.01,3.82-3.72,7.77-5.25,11.79-.99,2.6-1.79,8.21-4.35,9.63-3.13,1.74-8.1-1.04-10.98-1.95-3.38-1.07-7.08-1.52-10.55-2.22,9.89-15.48,20.17-30.72,29.76-46.38,4.79-7.83,10.84-16.05,13.48-24.9.5-1.68,1.11-3.28.91-5.06-.18-1.52-2.47-3.92-2.32-4.97.22-1.57,3.36-2.87,4.83-4.52,5.11-5.72,6.39-12.53,7.98-19.8,1.73-7.91,3.82-16.22,4.98-24.21h0ZM622.6,383.36c7.53-1.62,16.09,2.7,22.38,6.2,4.15,2.3,15.24,7.12,15.67,12.76-.12-1.53-10.31-.58-12.33-.53-8.61-1.87-17.8-4.38-25.84-8.1-2.93-1.35-6.37-2.68-5.3-6.15.7-2.28,3.28-3.72,5.41-4.18h0ZM613.87,494.39c-4.76-.27-22.04-.09-13.35-8.71,5.45-5.4,15.47-6.58,22.71-6.61,2.59,0,5.15.19,7.73.46.71.08,1.41.17,2.12.25,2.16-.43,2.83.46,2.02,2.68.39,1.3,1.01,8.99-.13,10.07-1.51,1.43-6.32.8-8.1.94-4.35.34-8.65.95-13.01.92h0ZM639.15,559.76c-12.52,1.87-25.03,4.24-37.72,4.44,1.9-9.26,4.1-18.49,7.55-27.31,2.21-5.63,6.21-17.8,13.93-17.2,6.16.48,13.35,11.03,15.07,16.43,2.24,7.03,1.17,16.33,1.17,23.64h0ZM671.31,419.06c-.25,1.28-5.87,3.59-7.07,4.29-8.67,5.04-16.39,12.51-21.58,20.99-.58-3.28-.49-9.49-3.23-11.81-4.83-4.1-3.84,5.08-4.42,7.88-.54,2.63.13,2.2-2.14,2.44-2.01.21-7.14-3.56-9-4.51-5.13-2.62-10.04-5.48-14.97-8.46,4.08-6.74,16.12-9.84,22.97-12.54,9.85-3.88,19.56-5.86,29.99-7.47,1.74.91,1.97-1.13,3.27-1.59.07-.11.1-.19.1-.28,1.53,2.28,6.45,9.13,6.07,11.05h0ZM684.06,509.93c4.85,22.29,6.06,45.48,12.19,67.51,5.83,20.93,11,41.78,17.73,62.43,3.88,11.9,7.48,23.91,12.66,35.33,3.61,7.97,6.48,24.96,15.29,28.69,5.76,2.44,8.32.28,7.7-5.57-.53-5.09-3.17-8.28-5.35-12.67-.76-1.53-3.23-5.85-2.96-7.47.33-2.02.85-1.8,2.95-2.8,4.47-2.12,8.92-3.55,13.68-4.78-1.92,2.98-5.75,7.23-6.06,10.87-.26,3,1.9,8.51,4.89,9.67,2.82,1.09,6.14-1.21,8.55-2.61,2.8-1.62,5.46-2.07,8.54-3.23-3.92,5.65-10.35,10.15-7.6,17.93,2.93,8.29,12.04,1.51,17.86.57-1.66,6.43-9.04,13.75-14.35,17.33-3.56,2.4-7.43,4.56-11.25,6.51-1.48.75-3.42,1.21-4.78,2.11-.52.34-1.39,1.79-1.86,2.01-6.6,3.19-15.61,4-22.8,5.54-7.92,1.69-14.73,2.1-22.88,1.71-6.74-.32-14.21-4.47-19.85-7.94-4.28-2.64-4.91-5.88-6.24-10.54-2.21-7.74-4.19-15.52-6.3-23.29-1.82-6.69-2.67-13.12-3.9-19.92-2.61-14.39-3.81-29.01-6.61-43.38-2.78-14.27-3.71-28.73-4.48-43.32-.37-7.03-1.51-14.19-1.86-21.08-.28-5.6-.19-11.24-.16-17.01.02-4.05-1.41-8.1-1.32-12.16.09-3.59.42-6.83.04-10.46-.81-7.74-1.44-15.38-2.05-23.13-1.19-15.1-4.68-30.01-6.07-45.04-.6-6.5,6.54-12.74,11.37-16.53,5.15-4.04,9.29-9.71,14.96-12.88,2.1,26.08,4.75,52.03,10.32,77.62h0ZM598.64,788.8c-5.59,2.49-11.18,4.99-16.78,7.48-4.11,1.83-9.51,5.59-14.03,5.25,3.21-4.35,5.24-9.33,8.66-13.56,3.42-4.22,6.25-8.71,9.34-13.17,4.07,4.96,8.22,9.5,12.8,14h0ZM599.83,766.91c8.46-4.46,20.48-12.94,30.4-11.34,7.14,1.15,15.23,6.38,19.55,12.14,2.02,2.7,4.05,5.22,6.36,7.87,2.12,2.43,3.21,2.11,1.36,4.64-1.43,1.95-4.79,3.26-6.98,4.02,0-4.26,1.32-8.53-3.79-8.11-2.02.17-4.37.65-6.38.98-1.73.28-2.74,1.04-4.22,1.38-1.58.37-3.46-.07-5.09.06-2.81.22-5.07,1.35-7.73,1.94-5.51,1.22-10.17,2.91-15.54,4.72-2.46-3.76-4.52-8.27-7.86-11.34-3.73-3.43-5.32-4.18-.06-6.95h0ZM527.25,204.48c.81-.09,1.74-.59,2.37-1.64-1.1,1.84-1.74,1.93-2.37,1.64h0ZM501.89,207.42c.98.18,1.96.4,2.77.78.8.38,1.23.8,1.66,1.18-.2-.09-.42-.18-.66-.28-1.06-.44-2.41-1.24-3.77-1.68h0ZM484.98,347.16c-.07-.09-.13-.17-.19-.25.06.08.13.16.19.25h0ZM481.69,347.64c-.31-.11-.57-.3-.78-.57.21.27.47.46.78.57.21.07.43.12.68.13-.24-.01-.47-.05-.68-.13h0ZM480.38,344.94c0,.39.03.73.09,1.04-.06-.3-.09-.65-.09-1.04h0ZM484.36,346.4c-.08-.08-.16-.16-.24-.23.08.07.16.15.24.23h0ZM483.68,345.81c-.13-.09-.25-.16-.38-.23.13.06.26.14.38.23h0ZM624.32,211.09c.18.05.34.08.49.08-.2.02-.36,0-.49-.08h0ZM628.67,214.01c-.53-.49-.84-.97-1-1.45.08.05.17.1.27.14.16-.16.32-.31.47-.47-.22.41-.29.8-.13,1.15.81,1.7,1.8-.88,3.03.39-.92-.11-2.04.24-2.64.24-1.41,1.94-2.83,3.88-4.24,5.82,1.91.95,2.51-.22,3.58,1.52.05.08.1.29.14.56-.44-1.27-1.6-1.02-3.72-2.08,1.41-1.94,2.83-3.88,4.24-5.82h0ZM632.33,218.27c.13-.1.21-.23.26-.41.03-.12.05-.26.07-.42-.01.16-.03.3-.07.42-.05.18-.13.31-.26.41-.09.07-.2.11-.34.15.14-.03.25-.08.34-.15h0ZM632.73,216.21c-.02.25-.03.48-.04.68,0-.2.02-.43.04-.68h0ZM630.64,221.38c.06.11.13.21.2.31-.07-.1-.14-.2-.2-.31h0ZM628.52,229.01c-2.02-1.08-.27-2.44-.18-4.11,0-.15.01-.27.01-.41.01.4.02.73,0,.89-.14,2.35-1.8,3,1.23,3.71.21.05.48.07.78.09-.78.06-1.45.04-1.85-.18h0ZM659.84,246.46c-.13-.96,4.37-3.06,4.94-3.31-.71.32-5.06,2.4-4.94,3.31h0ZM664.95,237.96s-.06-.02-.09-.03c0-.07,0-.14,0-.21.02.09.05.17.09.24h0ZM667.34,245.71c.02-.1.07-.38.13-.71.08.41.17.79.25,1.13-.1-.13-.22-.27-.38-.42h0ZM663.85,245.66c0-1.63.51-1.28.82-1.23-.29.44-.83.52-.82,1.23h0ZM659.11,249.23c.47-.09.87.18,1.24.49-.8-.21-1.45-.45-1.24-.49h0ZM655.26,258.53c-.07.03-.14.04-.21.06.07-.02.14-.04.21-.06h0ZM655.65,258.39c-.05.02-.1.04-.15.05.05-.02.1-.03.15-.05h0ZM654.92,258.63c-.1.02-.19.04-.28.05.09-.01.18-.03.28-.05h0ZM657.88,314.9c.2-.34.63-.45,1.11-.5-.61.23-1.08.73-1.19,1.46-.12-.27-.15-.57.08-.96h0ZM661.42,304.49s-.07-.02-.1-.03c-.99-.08-1.42.56-1.53,1.54.07-.85.35-1.55,1.09-1.78-.04-.08-.07-.15-.11-.22.19.17.41.33.64.49h0ZM660.24,309.76c-.02-.12-.05-.24-.07-.37.11.47.24.93.37,1.37-.13-.36-.24-.7-.29-1h0ZM661.1,293.55c-.08.04-.17.07-.27.1.1-.03.19-.06.27-.1h0ZM661.35,293.41c-.06.04-.12.08-.19.11.07-.03.13-.07.19-.11h0ZM660.79,293.67c-.11.03-.24.06-.38.07.14-.02.26-.04.38-.07h0ZM661.81,281.84c.01.44.01.87.03,1.29-.07-.41-.08-.81-.03-1.29h0ZM857.85,865.25c-2.7-2.43-11.75-2.59-15.34-3.27,7.77-7.44,13.62-26.24-1.23-28.66-3.29-.53-4.22.73-4.97-2.99-.46-2.28.48-4.38-.65-6.66-2.69-5.4-12.9-4.79-18-5.57,1.22-4.28,4.21-11.94-.3-15.42-3.55-2.74-10.95.92-14.72,2.09-10.2,3.17-20.56,6.8-29.17,13.19-3.86-5.21-7.89-10.34-11.12-15.97-3.09-5.37-5-11.31-7.9-16.77-2.91-5.48-6-11.95-10.06-16.66-3.44-3.99-8.16-4.38-12.69-6.29-11.51-4.83-21.48-4.55-33.51-2.77-12.02,1.79-22.44,8.82-32.63,14.95-4-13.48-13.24-28.12-27.57-32.28-6.43-1.87-13.2-.07-19.08,2.87-7.29,3.63-13.01,9.81-20.14,13.26,8.12-13.91,18.38-26.99,27.31-40.12,4.9-7.2,11.08-13.63,15.87-20.97,4.88-7.48,8.47-15.8,12-23.97,2.99,7.62,3.49,15.64,6.24,23.29,2.52,7.02,4.24,14.23,7.11,21.13,2.99,7.21,5.63,14.32,9.68,21.03,2.31,3.83,7.99,15.75,12.18,8.1,9.32,6.3,18.32,10.1,29.98,9.82,5.34-.13,11.28-.29,16.39-1.49,5.19-1.21,10.15-2.85,15.3-4.01,4.08-.92,7.81-3.41,11.52-5.26,4.27-2.12,8.5-5.94,11.79-9.28,4.08-4.14,8.3-8.13,12.4-12.25,4.06-4.07,3.77-8.23,5.94-13.29,2.27-5.28,3.24-9.95.24-15.28-2.2-3.9-6.08-3.37-6.99-7.32-.86-3.75-.02-7.29-2.38-10.73-1.79-2.61-8.23-4.36-8.25-7.03-.02-2.2,2.27-4.15,2.18-6.8-.08-2.36-1.24-6.16-2.51-8.15-2.38-3.76-6.02-3.88-10.11-2.74-9.89,2.77-19.59,9.9-26.4,17.39-9.33-25.55-16.68-51.67-23.5-77.8-3.01-11.54-5.38-23.24-7.29-35.01-1.9-11.65-4.77-23.4-6.05-35.11-.77-7.03-2.93-13.6-3.94-20.54-.84-5.75-1.39-11.54-2.22-17.29-1.82-12.74-4.35-25.28-6.32-37.99-1.09-7.02-3.54-13.17-5.43-19.93-1.62-5.8-2.58-10.76-5.29-16.24-5.17-10.45-10.48-23.25-20.51-29.89-8.93-5.91-17.58-10.84-28.46-12.05-6.38-.71-11.52.79-17.76,1.48-5.52.61-10.26,3.66-15.64,4.76,0-5.12-.5-5.26,4.17-7.08,2.69-1.05,5.32-2.2,8.06-3.11,2.89-.96,5.08-1.9,7.54-3.67,2.91-2.09,1.07-1.42,4.56-.7,5.49,1.14,3.87-.18,7.49-2.92,2.1-1.59,4.25-.62,6.71-.3,2.3.3,6.07,1.31,7.83-.76,1.33-1.57-.12-4.27.86-5.98,1.55-2.7,5.99-2.57,8.36-4.39,2.6-1.98,2.83-4.22,2.27-7.26-.39-2.11-3.71-6.8-3.53-8.61.13-1.21.76-1.56,1.58-1.66,6.5.33,6.18-.65,4.6-6.41-.09.85-.15,1.58-.21,2.2-.02-.89-.01-1.73.21-2.2.17-.36.78-.59,1.33-.88-.15.14-.3.29-.48.46.28,1.22.36,4.42,1.53,5.29.84.62,3.79.56,4.39-.48,1.24-2.17-3.04-3.41-3.2-5.02,4.91-.41,3.24-2.81.67-5.25-.1-.67.29-.99,1.17-.95-.44-.46-.98-.72-1.52-.8.38-.06.72-.18.89-.45.15-.24.16-.57.11-.94.1.29.18.53.24.72,4.24,1.71,2.06-7.37.3-8.92.14-2.52.27-5.04.4-7.56-1.21.8-2.13,2.04-2.45,3.34.04-1.2.74-2.22,2.45-3.34-2.72-1.2-2.99-1.35-.07-1.6,2.43,2.21,2.09.38,3.59-.98-.09.08,2.27-2.49,2.12-2.1,1.12-2.78-.12-8.64-4.64-6.73,2.46,2.2,0,2.61-.87,4.5-.03.06-.05.13-.08.2.05-.23.11-.45.2-.65,1.52-3.26,1.88-.76.21-4.46,0,0,0,0,0,0,.44.22,1.13.18,2.23-.29,1.37-1.67,1.78-.99,2.51-3.13.64-1.88.34-3.16-.94-3.86.15.04.29.08.44.12.57-1.45-.22-2.82-1.53-3.49-.53.87-1.06,1.73-1.58,2.6.24.08.48.15.72.22,0,0,0,0,0,0-1.68-.19-2.36.11-2.61.88-.08-.35-.11-.69.09-1,.2-.33,1.65.16,1.81-.1,2.6-4.26-.15-7.81-4.33-9.98-1.59-.82-4.72-.85-5.28-2.78-.4-1.36,1.58-4.66,1.96-6.28,2.92-1.34-2.47-2.12-2.51-2.13-.16,1.91-.06,2.75,1.04,2.6-1.11.15-1.21-.7-1.04-2.6,1.58.24,6.26-.19,8.55-1.75,3.79.11,5.74.77,8.05-2.52-2.25-.93-4.9-.43-6.91-1.86.09.43.17.82.22,1.18-.18-.53-.55-.99-1.06-1.43.33.28.16.37-.23.36.08-.1.15-.22.23-.36.14-1.6,1.31-.95,2.5-.85-.03-.51-.23-.94-.45-1.37.22.41.42.83.45,1.37.75-.48,1.51-.96,2.26-1.44.41-.12.65-.28.75-.49,0,0,0,0,0,.01,3.6,1.07,2.5-6.55.85-6.51-.44.01-.77.17-1,.43.05-.7.17-1.45.46-2.49h0,0c.17-.45.34-.9.51-1.34-.91.06-3.84-1.69-3.9.4-.06-.38-.2-.73-.46-1.05.26-2.31-1.1-2.12-3.21-2.76-.78-.24-1.65-1.74-2.53-1.11-1.33.95-.53,1.84.32,2.51-.13.79-.5,1.41-1.13,1.88-.1-.09-.19-.16-.28-.23.59-.34,1.08-.89,1.41-1.66-2.71-2.15-3.86-.74-5.95.98.83.69,1.79,1.06,2.72,1.1-.05.1-.09.2-.14.33-1.05-.13-1.91-.61-2.58-1.43,2.22-1.83,2.02-2.96-.68-4.05-.91-.37-1.49.45-2.62.02-.56-.21-.96-1.19-1.51-1.51-4.08-2.41-8.98-1.04-13.33-1.61.54-.07,1.03-.14,1.4-.19-.43-1.5-1.6-2.15-2.82-2.6,0-.85,0-1.71,0-2.56-.17-.04-.34-.06-.5-.06.28-.22.45-.53.41-1.05-1.05.38-1.94.1-2.51-.66,1.14,1.46,3.36.69,4.04-1.17.71-1.96-.81-3.27-2.14-4.73.03-1.4-.56-1.9-1.33-2.03,1.38-2.72,1.69-1.37.21-4.77-.12-2.29-2.07-1.46-3.38.01.14-.34.28-.68.41-1.04-1.03-.07-2.06-.14-3.09-.21.26.84.84,2.33.08,3.04.51-.73.15-2.31-.08-3.04-1.26-.7-2.52-1.41-3.79-2.11.11.23.4,1.08.76,2.04-.97-1.35-1.76-2.19-3.09-3.58-.65-.68-3.17-3.94-3.88-4.14-4.29-1.24-7.53,7.14-12.76,5.99-3.08-.68-1.64-1.47-4.56-.91-1.6-2.07-12.01,1.19-12.41,3.16.2-.05.34-.07.47-.08-1.17.42-2.19,1.07-3.33,1.51-2.85,1.1-1.15,1.39-4.39-.46-1.1-.63-1.51-.43-1.94-.49,1.39-.63,2.06-4.96,2.08-6.5.05-3.69-.44-3.04,1-5.69-1.33-.02-2.27-.13-2.97.18.2-.63.34-1.24.34-1.84.72-1.95.09-4.25-2.14-4.79-3.37-.82-4.03,4.02-1.59,4.81-2.34-.76-1.4-3.82-4.58-4.23,1.17-.06,1.89.16,2.98,1.5.36-.73.72-1.45,1.08-2.18-2.53-.26-3.7-.48-5.75.71-2,.36-3.41,1.81-4.92,3.22-4.12,3.86-7.81,7.62-11.6,11.8-1.95-4-4.1-6.91-7.25-2.43-2.85,4.04-5.16,9.62-6.64,14.32-2.96-1.36-1.71-1.8-2.96-4,1.29,2.14-.02,2.64,2.96,4,.3-.94.59-1.87.89-2.81-2.59-2.96-2.48-5.89-5.29-9.04-.31,1.01.58,2.45.74,3.36.17,1.01-.94,1.71-.69,2.8,1.05-.38,1.29-.15,1.33.27-.04-.42-.28-.65-1.33-.27-.42-1.77.62-2.72.04-4.69-.23-.8-.57-1.38-.98-1.95,1.79-2.99-3.99-5.06-5.34-3.28-.17.22-.28.43-.37.63-2.26-1.01-2.95,1.14-4.01,2.77-.25.51-.5,1.01-.75,1.52-1.33,1.09-2.56,3.37-3.56,4.87-2.14,3.19-3.04,7.87-5.65,10.53.09-1.71,1.02-5.51-2.06-3.98,1.02-.51,1.16-1.12.94-1.83.19.11.4.21.64.29.43.04.87.08,1.3.13-.05-2.43-1.65-4.02-3.52-5.31,0,.63-.02,1.29.02,1.91,0-.02-.02-.04-.03-.07-.82-1.98-.48-2.56-1.19-3.16.28.07.6.12,1,.13-2.3-3.89-5.36-4.51-9.58-3.41.29.07.59.13.9.18-.48,0-.94.09-1.38.3-1.64.8-4.07,5.39-5.21,6.98-4.01,5.6-5.87,12.47-7.97,18.95-.59,1.82-1.48,6.09-3.76,6.71-2.65.71-5.45-3.6-7.79-5.05-7.46-4.61-11.17,3.67-12.32,10.24-1.71,2.91-1.32,5.15,1.15,6.53-.69-1-1.01-2.07-1.14-3.16.33,1.87,1.89,2.52,2.17,3.32.15.44.37,3.1.36,3.64,1.27.95,1.37,1.65.29,2.11-.66.45-1.28.96-1.86,1.52-1.79,1.88-1.77,4.5-3.41,6.33-1.85,2.07-3.55,1.16-4.42,4.57-1.49,5.84,2.19,14.65,8.82,15.21-.79,2.3-1.8,4.63-2.39,6.99-.78,3.14-.73,3.45.75,6.46-11.02-1.64-10.16,10.03-3.88,15.76,1.49,1.36,3.12,2.2,5.04,2.81,1.39.44,5.59.19,6.59,1.51,2.11,2.78-2.6,6.4-3.01,9.5-.04.32-.06.86-.05,1.5-1.74,2.12-1.65,2.3.83,4.29,1.36,1.75,5.56,1.33,6.83,3.01,1.96,2.58-2.42,6.72-.22,9.73,1.75,2.39,3.57.9,6.36,1.92,1.35.62,2.71,1.24,4.06,1.86.63-.44,1.33-.72,2.08-.83,1.58.79.07,2.19,2.06,2.66,1.03.33,3.42,1.57,4.47.92-1.48.91-2.48,3.16-3.33,5.64-.81,1.32-1.56,2.78-1.26,3.88-.5,1.52-1.01,2.9-1.62,3.86,3.44.52,3.04,3.76,5.42,5.54,3.22,2.75,3.75.2,2.99-1.15.32.16.65.38.99.62.06.05-.63,1.68.05,2.06.95.54.95,0,1.94-.01.93-.01,2.28-1.41,3.42-1.52.6-.06,2.39.77,2.76.52,1.03-.68.95-1.43.55-2.34l.46.92c1.11,2.9,1.67,2.24,3.35,1.41-.45.22,1.32-1.1,1.68-.99-.83-2.3-4.11-2.05-6.13-2.63,1.28.36,3.36.38,4.54.89,1.97.85,1.35,1.71,3.69,1.98.98.11,5-.98,5.7-1.69.07-.07.11-.15.15-.24.36-.58.73-1.16,1.09-1.75,1.48.17-.12,2.45,2.21,1.55,1.74-.68.89-1.62.34-2.65-.18-.34-.39-.58-.6-.75,2.4.57,5.26,3.81,8.54,2.9,1.85-.51,1.95-1.77,3.31-2.95,1.81-1.58,2.37-1.33,4.57-2.1,1.33-.46,2.74-1.48,4.08-1.72,2.18-.39,1.58-.15,3.38.77,1.08.55,1.69,1.58,3.06,1.78,1.24.18,3.2-1.25,4.21-.86,2.74,1.07,2.04,4.92,2.2,7.45-13.87-4.41-30.08,2.64-40.29,12.33-2.77,2.63-4.58,5.74-7.04,8.6-2.67,3.1-5.19,4.51-5.56,8.92-.32,3.81,1.39,6.09.04,9.75-1.3,3.51-2.72,6.64-3.67,10.3-4.54,17.46-4.68,35.59-8.05,53.29-3.12,16.38-7.56,30.97-14.89,45.98-3.4,6.96-6.25,11.22-13.7,14.16-6.03,2.37-10.44-.74-13.39-6.15-7.93-14.57-9.06-29.55-8.96-45.81.05-7.81.94-15.62,1.69-23.38.78-8.04.2-15.56-.36-23.59-1.12-16.11-4.8-29.92-10.33-45.07-2.62-7.18-4.83-14.19-11.15-18.86-3.54-2.62-7.09-5.89-11.24-8.15-3.32-1.81-5.29-3.45-9.07-4.26-2.49-.53-4.75-1.36-7.16-2.13-5.67-1.82-12.23-2.39-18.17-2.37-13.88.05-29.12,4.72-41.62,10.71-6.22,2.98-12.98,7.43-17.08,13.09-1.69,2.34-2.84,4.93-3.99,7.56-1.38,3.14-.94,3.72-3.85,3.61-1.82-.07-3.86-1.76-5.95-1.85-2.29-.1-3.96.7-6.09,1.29-2.7.75-5.24,1.42-7.64,2.97-5.83,3.76-10.76,9.76-15.22,15-8.16,9.58-15.53,20.32-23.17,30.08-7.51,9.61-16.64,18.14-28.31,22.49-4.45,1.66-9.38,2-13.93,3.34-1.99.59-4.41,2.15-6.5,2.13-3.28-.04-3.03-1.65-4.17-4.26-1.35-3.1-3.31-5.51-5.75-7.82-10.84-10.26-24.32,4.94-23.48,16.66.49,6.84,5.62,11.36,5.44,18.08-.17,6.28.2,12.66,2.45,18.62,2.52,6.69,8.7,13.63,14.16,18.18,5.05,4.22,11.38,5.11,17.75,5.81,2.92.32,5.95,1.19,8.77,1.14,2.42-.04,4.62-1.02,7.09-.92,4.19.17,6.43.14,10.36-1.34,2.91-1.1,5.54-1.71,8.7-1.64,0,6.68.42,13.21,1,19.86.08.88.68,3.16.28,3.94-.5.97-1.09.33-1.71,1.02-1.48,1.66-2.56,2.47-3.67,4.63-3.04,5.91-3.98,12.52-2.79,19.12.93,5.17,3.97,7.3,3.25,12.79-.84,6.45-2.42,13.04-2.72,19.53-.15,3.1-.18,5.44-.84,8.44-.38,1.74-1.65,4.89-1.55,6.65.06,1.09,1.22,1.57,1.22,2.57,0,.87-1,.75-1.07,1.5-.21,2.25-.33,4.29-.29,6.55.06,3.06-.24,6.1-.12,9.16.09,2.33-.46,7.85,2.16,6.94-.7,1.65-.88,3.23-.95,4.81-.04-.15-.05-.31-.04-.47.16-1.82.21-2.51.99-4.34l-1.49.52c-.91,2.36.21,4.66.46,7.01,0,.23-.02.47-.03.71-.21,3.4.05,6.74.3,10.13.58,7.75.85,16.4,2.95,23.37,2.3,7.64,1.56,17.24,2.45,25.65,1.01,9.63,2.66,19.1,3.88,28.69,1.09,8.57,1.62,17.86,3.5,26.2,1.54,6.83,2.84,13.48,3.67,20.66,1.14,9.96,4.78,17.54,8.78,26.59,1.69,3.83,1.81,3.77-1.3,6.56-1.3,1.17-2.4,2.54-3.73,3.69-2.65,2.29-5.55,3.63-9.04,4.04-8.58,1.02-17.24,4.07-22.06,11.46-4.66,7.15-1.64,15.52,1.85,22.81-4.6.39-17.04.11-14.13,8.49,1.99,5.73,12.6,3.81,17.28,3.87,6.85.09,13.74-.24,20.52-.34,3.09-.04,3.4-.36,6.41.82,2.83,1.11,5,1.23,8.07,1.03,3.27-.21,6.53.27,9.7-.2,3.99-.59,6.47-1.09,10.48-.38,2.9.51,5.22.26,8.11-.12,3.2-.42,6.24-.17,9.54-.26,7.72-.21,15.38-.06,23.11.02,7.51.08,15.03-.94,22.49-.61,13.01.59,26.25.05,39.32.36,6.03.14,10.68,3.65,16.73,3.29,6.14-.37,12.37-.42,18.46-1.28,10.49-1.48,20.6-3.57,31.26-4.11,6.74-.34,12.66,2.56,19,4.38,2.3.66,4.36.35,6.51.84,2.03.46,4.1,1.78,6.24,2.33,5.07,1.3,9.91,1.79,14.36,1.91.58,1.07,1.24,1.2,2,.39.31-.17.61-.35.92-.52,1.42-.19,2.43-.83,3.92-.92,2.3-.15,4.65.17,6.78-.04,4.46-.43,8.65-.71,13.59-.2,2.93.3,5.49-.12,8.37-.07-.03,0,3.95.78,4.04.74.35-.14.91-1.12,1.14-1.16-.08-.94.2-1.37.85-1.28.52-.11.87.16,1.03.82-.16.02,1.24.73,1.34.74.08.01,3.68-.41,3.93-.51,1.03-.39,1.47-1.51,2.3-1.68.98-.2,1.56.88,2.4.83,1.86-.1,1.64-.93,3.08-1.19,5.03-.91,11.19.27,16.39.28,5.18,0,10.33-.47,15.31-.68,6.13-.27,12.14.89,18.31.07,5.87-.79,11.75-1.13,17.67-1.38,12.37-.52,25.06.03,37.32-1.42,12.76-1.51,25.73,0,38.51-.23,13.47-.24,27.02-.36,40.49-.91,13.41-.55,26.76-2.15,40.11-2.47,3.4-.08,6.73-.89,10.12-1.14,3.1-.22,6.15.27,9.27,0,5.69-.5,10.86-.12,16.58-.2,6.39-.1,12.61-1.07,18.97-1.47,6.43-.4,12.8.51,19.17-.76,3.49-.69,9.99-5.47,5.54-9.47h0Z" style="fill: #010101; fill-rule: evenodd;"/>
        <path id="react-path-7" d="M605.39,296.44s-.02,0-.02,0c-.03.04-.07.08-.1.11l.12-.11Z" style="fill: #010101; fill-rule: evenodd;"/>
        <path id="react-path-8" d="M658.65,267c.81-2.81-1.24-4.82-2.61-7-.81,4.95-3.28,4.73,2.61,7" style="fill: #010101; fill-rule: evenodd;"/>
        <path id="react-path-9" d="M510.3,372.42c.02.06.05.11.07.17.02-.1,0-.15-.07-.17" style="fill: #010101; fill-rule: evenodd;"/>
        <path id="react-path-10" d="M487.97,368.71c.18.41.59,3.27.88,3.29,2.59.12-.57-4.71-2.22-5-2.39,1.55,1.4,1.84,1.35,1.71" style="fill: #010101; fill-rule: evenodd;"/>
        <path id="react-path-11" d="M487.83,352c-.17-2.18-.91-2.46-3-1.4.63,1.37,1.37,1.18,3,1.4" style="fill: #010101; fill-rule: evenodd;"/>
        <path id="react-path-12" d="M458.83,298.5c1,.17,2,.33,3,.5-.59-1.33-1.17-2.67-1.76-4-.41,1.17-.83,2.33-1.24,3.5" style="fill: #010101; fill-rule: evenodd;"/>
        <path id="react-path-13" d="M479.36,737.49s0,0,0,0c-.07.03-.08.03,0,0" style="fill: #010101; fill-rule: evenodd;"/>
        <path id="react-path-14" d="M275.35,465.15c2.12-3.54,6.13-7.92,10.71-6.44,4.27,1.38,5.45,6.98,7.29,10.5,3.58,6.85,4.7-.5,5.49-4.66-.65-8.32-3.88-21.87-14.84-20.43-8.33,1.09-15.53,14.48-13.94,22.39,1.33,6.65,3.58,1.51,5.29-1.35" style="fill: #010101; fill-rule: evenodd;"/>
        <path id="react-path-15" d="M591.1,308.29c-4.09-1.46-4.09,2.96-4.24,6.28-.14,3.05.33,10.21,4.18,11.31,3.84,1.09,4.2-5.24,4.8-7.79-.89-3.04-1.39-8.6-4.73-9.79" style="fill: #010101; fill-rule: evenodd;"/>
        <path id="react-path-16" d="M595.83,301.65c-3-2.65-5.01-3.47-8.84-1.75-1.97.88-4.79,2.8-5.1,5.22-.96,7.53,11.3-1.92,13.95-3.47" style="fill: #010101; fill-rule: evenodd;"/>
        <path id="react-path-17" d="M596.46,346.77c7,1.81,7.44-7.76-.34-7.77-5.21-.01-3.57,6.76.34,7.77" style="fill: #010101; fill-rule: evenodd;"/>
        <path id="react-path-18" d="M542.97,317.04c-2.61.38-3.53,2.02-2.97,4.64.65,3.02,2.28,3.04,5.21,3.32,7.06.02,2.45-8.65-2.24-7.96" style="fill: #010101; fill-rule: evenodd;"/>
        <path id="react-path-19" d="M604.93,300.84c.65,1.79,4.15,2.6,5.99,1.92,2.18-.81,2.63-2.79.67-4.6-1.69-1.55-4.01-1.14-6.12-1,.07.68-.94,2.57-.53,3.68" style="fill: #010101; fill-rule: evenodd;"/>
        <path id="react-path-20" d="M385.39,505c3.34,0,.19-5.65-2.56-6,.06,1.75-.06,6,2.56,6" style="fill: #010101; fill-rule: evenodd;"/>
      </g>
    </g>
  </g>
  <g id="react-group-118">
    <g id="react-group-119">
      <path id="react-path-122" d="M1518.21,813.54c-.12-40.62-.9-81.26-2.27-121.87-1.02-30.09-2.32-60.21-4.85-90.21-1-11.89-2.16-23.79-3.99-35.58-1.13-7.3-2.17-15.26-5.26-22.06-1.01-2.22-1.98-3.67-4.13-4.81-7.94-4.21-18.81-4.83-27.56-5.72-14.34-1.46-28.86-1.88-43.28-1.58.84,15.5,1.69,31.01,2.53,46.51.65,11.94,1.3,23.88,1.95,35.82.41,7.54,1.4,15.29,1.24,22.84-.13,6.15-7.36,12.03-11.04,16.84-4.51-13.79-9.02-27.59-13.53-41.38-2.38,6.16-4.93,12.26-7.7,18.25-1.83,3.95-3.69,8.02-6.12,11.65-2.22,3.32-2.86,3.79-6.72,3.22-4.64-.68-8.16-2.06-10.9,1.39-2.43,3.05-4.69,6.17-7.33,9.07-29.11,32.01-73.96,51.89-115.52,60.89-24.48,5.3-49.17,9.6-73.64,15-37.36,8.25-75.73,16.38-111.42,30.47-5.59,2.21-11.25,4.58-16.35,7.8-5.63,3.54-9.64,8.9-13.54,14.21-9.51,12.97-20.66,34.24-5.99,47.78,11.25,10.38,28.82,11.42,43.43,12.59,15.1,1.21,30.26,1.8,45.4,2.29,41.24,1.34,82.52,1.63,123.78,1.67,37.7.03,75.4-.18,113.09-.91,17.1-.33,33.58.07,50.12-4.32,33.86-8.98,67.63-18.33,101.41-27.61,2.72-.75,5.43-1.49,8.15-2.24" style="fill: #7dae96; fill-rule: evenodd;"/>
      <g id="react-group-120">
        <path id="react-path-123" d="M1174.11,458.49c1.58,1.64-.98,2.91-2.14,3.27.19-1.59.95-2.3,2.14-3.27h0ZM1390.94,767.54c.61-1.44,1.52-2.62,3.18-1.94,2.75,1.12-2.81,1.93-3.18,1.94h0ZM1151.85,535.83c-1.14.14-5.79-.15-4.35-2.68,1.67-2.93,3.96,1.77,4.35,2.68h0ZM1235.22,509.89c-2.44-2.1-4.63-5.3-4.66-8.63,2.3,1.53,3.54,6.26,4.66,8.63h0ZM1176.61,467.83c-2.04.1-.17-2.76-.19-3.33-.04-1.23-1.19-2.28-1-3.73,0-.06,2.06-4.65,2.6-4.95,1.52-.82,2.41.68,3.77,1.15,2.02.69,3.01.08,5.18.29,1.92.19,3.53,1.12,5.53,1.12.48,0,1-1.01,1.55-.95.85.09.93,1.17,1.53,1.23,2.11.19,2.24-.65,4.21-1.44,3.28-1.31,5.58,1.74,5.51,5.35-.1,4.78-5.08,6.73-8.9,7.83-4.93,1.41-7.66,2.27-12.67,1.38-1.45-.26-2.92.2-4.06-.8-1.54-1.34-.72-4.17-2.47-5.48-.2.78-.4,1.56-.6,2.34h0ZM1349.88,657.93c-.41,3.12.45,4.73-2.58,6.82-1.79,1.24-4.04,2.05-5.93,3.29-2.74,1.79-6.85,2.94-9.29,5.01-1.54,1.31-1.82,5.02-3.96,5.46-1.82.38-4-2.91-4.62-4.4-.69-1.64-.23-3-.51-4.64-.19-1.1-1.01-1.33-.87-2.62.15-1.36,1.47-2.07,2.04-3.15.51-.96.67-2.33,1.07-3.1.95-1.79,3.05-5.6,4.92-6.79,1.58,4.14,2.77-.05,4.96-1.27.82-.02,1.63-.03,2.45-.02.42-.4.85-.8,1.29-1.18,1.01-.09,2.67.44,3.58.73.5-.11,1.01-.18,1.52-.2.68.2.95.58.81,1.14-.3-.14,1.35.86,1.51.97,3.25,2.21,6.24,3.09,6.84,7.79-1.08-1.28-2.15-2.56-3.23-3.84h0ZM1324.51,490.07c3.48-9.01,2.37-16.96,2.04-26.39-.08-2.22-.55-6.97,1.76-8.44,2.89-1.83,5.29,2.31,6.8,4.03,2.59,2.95,6.2,5.65,7.53,9.47,1.17,3.37-.04,7.51-.93,10.85-.96,3.6-2.16,8.44-5.43,10.43-3.5,2.13-8.24,1.92-11.77.04h0ZM1201.91,681.78c.5-6.91,10.11-4.49,14.43-2.36,3.23,1.59,5.04,4.02,7.07,6.91,2.31,3.28,3.07,4.2,2.88,8.09-.17,3.56.03,7.13-.86,10.67-.45,1.8-.55,2.11-1.74,3.35,0,0-2.06,2.06-1.49,1.73-2.67,1.52-6.64,1.78-9.77,2.01-4.48.34-5.55.4-7.37-3.86-.35.74-.7,1.48-1.05,2.22-.11-.52-1.36-6.74-1.07-6.68.5.11,1.04,1.55,1.29,1.92-.16-2.86-2.19-5-3.18-7.56-.91-2.35-1.28-5.01-1.98-7.43-.68-2.35-1.44-5.62-.78-8.06.87-3.24,1.15-2.32,3.63-.97h0ZM1143.89,529.48c-1.56,1.47-.17,3.85-.37,5.67-2.12-1.3-1.39-2-2.21-4.11-.53-1.36-2.09-3.97-3.45-1.74-.57.94,1.32,2.23.04,2.78-.75.32-2.76-2.2-3.13-2.6-2.53-2.74-4.15-5.54-4.36-9.27-.06-1.02-.04-3.57.32-4.16,1.05-1.69,3.85-.69,3.61-3.79-1.11.55-2.23,1.11-3.34,1.66-.35-3.48,3.41-5.54,4.98-8.31,1.79-3.15,2.95-5.44,5.87-8.15,1.35-1.25,3.54-3.83,5.28-4.43,1.36-.47,1.91.22,3.28.24,2.87.03,7.17-.75,2.91,2.43.87.41,2.01.66,2.74,1.3.55.47.75,1.83,1.4,2.16,1.39.7,2.42-.67,3.99.89,1.65,1.64-.04,2.67.33,3.39,1.06,2.08,2.51,1.04,2.46,4.21-.08,5.22-3.08,11.4-4.7,16.28-.95,2.87-2.01,7.35-6.02,6.18.15,1.38.5,2.72-.39,3.95-.84-.99-1.14-3.15-1.7-4.3-.83-1.7-2.19-3.35-3.14-5.01.14,2.62.42,3.35,2.2,5.33-2.34.29-5.23,2.16-6.59-.6h0ZM1315.25,605.34c-2.15-1.63.67-3.44-3.57-2.52-1.08.24,0,1.5-1.63,1.55-.62.02-2.13-1.5-2.55-1.86-.39-.33-2.15-2.69-2.43-2.85.47.25-2.13-.75-1.32-.1-1.55-1.25-2.73-3.3-3.43-5.8-1.71-6.12-1.47-13.43,2.08-18.69,1.49-2.2,2.67-4.89,4.91-6.37,3.04-2.01,8.06-3.2,11.45-4.47l-1.1-2.67c9.31,4.21,15.73,14.03,16.52,24.02.28,3.59,1.3,8.15-.88,11.33-2.28,3.32-8.04,6.82-11.22,3.12.48,2.06-.93,4.52-3.11,5.04-.82.2-1.6-.4-1.96-.34-.46.07-1.44.67-1.77.61h0ZM1400.73,396.93c6.26-.74,5.29,10.56,4.11,13.95-.95,2.74-4.34,6.55-6.13,8.93-2.14,2.84-4.99,4.96-8.02,6.78-1.04.62-1.8.82-2.7,1.17-.32-.32-.7-.48-1.14-.5-.39.65-.95,1.14-1.66,1.46-2.27.71-6.04.6-8.3.51-3.64-.15-7.9-2.25-11.52-2.95-1.69-.33-2.64-.46-4.14-1.34-.76-.44-2.23-3.86-2.44-.5-.93-.57-.64-1.52-1.32-1.94-.65-.4-2.74-.79-3.51-1.67-1.08-1.23-2.52-4.05-3.28-5.74-.49-1.08-1.51-3.87-1.43-5,.17-2.38.94-1.84,2.98-2.82,1.36-.66,2.15-1.21,3.51-1.58.16-.04.54.77.8.7.47-.12.65-.66.98-.76,2.49-.81,5.42-3.2,8.49-2.96,1.33.1,2.57,2.12,3.25,2.02,1.05-.16.52-2.31,1.26-3.09,1.87-1.99,8.09-1.66,10.5-2.01,6.57-.94,13.14-1.81,19.72-2.65h0ZM1181.55,568.72c-.6-4.69-1.34-9.35,3.8-11.65,1.93-.87,3.54-.55,5.52-.79,2.57-.31,2.2-1.41,4.11,1.35,1.05-1.36.35-1.8,2.08-1.96.71-.07,3.82,1.96,4.63,2.29,3.38,1.38,7.67,1.25,10.22,4.04,2.47,2.71,4.48,5.31,5.52,9,.53,1.86.87,3.79,1.52,5.61.7,1.98,2.28,3.68,2.83,5.65,2.2,8.04-7.16,15.38-13.74,17.51-.85-.17-1.68-.12-2.49.16-.57.38-1.09.83-1.54,1.34-2.07.65-2.56.43-4.67-.51-3.47-1.57-7.53-2.1-10.16,1.56-.81-4.26-3.77-1.73-5.19-4.47-.79-1.51.93-5.71-.06-6.8-1.69-1.85-6.96,1.44-6.82-2.89.05-1.58,1.84-2.1,2.46-3.35,1.11-2.24.5-4.6-1.05-6.57-.14.34-.71,2.57-1.45,1.98-1.97-1.57,1.27-4.04,1.98-4.89,1.17-1.41,2.23-2.48,1.96-4.45-.16-1.22-2.12-2.49-2.05-3.67.05-.9,2.47,1.4,2.6,1.51h0ZM1273.05,619.35c-.13,3.29,1.97,3.72,3.35,5.98.38.62.4,2.09.93,2.99.98,1.69,1.67,1.8,1.98,3.45-.04-.18-.53,1.63-.54,1.84-.14,2.32,1.48,4.18,1.03,6.73-.62,3.59-3.35,7.59-5.27,10.57-4.35,6.75-10.42,11.98-18.75,12.46-5.56.32-18.64-1.9-19.83-7.72.31-.67.58-1.37.8-2.08.13-1.03-.26-1.74-1.15-2.11-.69-.18-1.22-.56-1.61-1.15.19-.59.5-1.11.93-1.56-.15-.78-1.46-.82-1.44-1.32.04-.93.86-3.27,1.08-4.34.38-1.84.59-3.59.93-5.44.27-1.5,1.19-2.24,1.43-3.61.16-.94-.79-1.79-.71-2.78.63-.56,1.14-1.21,1.52-1.96.04-.78-.15-1.5-.57-2.16.93-6.54,10.18-12.03,16.76-12.18,3.54-.08,9.57-.33,12.75,1.51,2.12,1.23,3.55,5.61,6.39,2.89h0ZM1414.96,849.76c4.65-2.09,8.81-4.33,13.79-5.34,3.59-.73,6.68-2.75,10.29-3.41,8-1.46,16.63-2.8,24.3-5.61,8.22-3.01,17.18-4.09,25.61-6.59,4.15-1.23,7.77-2.04,12.06-2.28,4.18-.23,8.48-2.56,12.66-2.17,3.49.33,5.99,3.01,8.72,4.93,3.54,2.48,7.41,4.62,11.22,6.67,4.04,2.18,8.55,3.27,12.54,5.39,3.31,1.76,6.57,3.48,9.98,5.09,18.15,8.58,35.67,16.59,52.04,28.52-5.28,1.61-11.28,0-16.53-.56-7.46-.81-14.88-1.41-22.26-2.79-4.32-.81-12.75-3.89-16.87-1.52-3.62,2.08-3.35,7.42-3.87,10.99-3.42-1.32-6.83-2.67-10.28-3.91-2.71-.97-7.12-3.66-9.88-3.75-7.71-.26-6.86,10.55-6.11,15.51-4.5-1.53-8.78-2.6-13.15-4.49-3.5-1.52-7.36-1.85-10.76-3.66-8.44-4.5-17.81-7.32-26.85-10.51-10.2-3.61-20.38-7.28-30.49-11.12-4.16-1.58-8.26-3.67-12.51-4.95-4.58-1.38-9.26-2.42-13.65-4.43h0ZM1314.33,437.46c.65,6.08-.02,12.21-.21,18.3-.22,7.13-.23,14.18-1.15,21.27-1.67,12.79-4.01,25.58-8.59,37.68-4.17,11.02-11.2,18.81-23.11,21.19-10.7,2.14-21.13-1.53-27.94-10.08-7.06-8.87-9.23-20.07-13.37-30.34-2.02-5.02-3.52-10.08-5.21-15.22-1.01-3.08-6.03-11.92-4.59-15.09,1.4-3.09,9.67-4.15,12.53-5.86,4.55-2.73,8.75-8.2,12.22-12.2,2.33-2.68,3.68-4.66,5.25-.41,1.89,5.11.52,11.01,2.28,15.96,1.73,4.87,5.51.07,5.9-3.11.74-6.1-.15-13.02-.44-19.15-.54-11.42-1.29-24.62-11.58-31.66-9.76-6.67-20.35-8.75-25.77-20.27-2.17-4.62-4.73-9.46-3.37-14.62,1.57-5.96,3.89-12.2,6.17-17.93,4.39-11.01,11.25-20.59,17.26-30.69.81-1.36.98-3.11,2.75-3.5,2-.44,6.68,2.97,8.62,3.52,5.29,1.5,10.02-1.61,14.69,1.9,3.75,2.82,6.92,6.88,11.98,7.17,2.18.13,5.13-1.82,7-1.35,2.39.59,3.08,4.16,4,6.16,2.11,4.6,4.47,10.35,7.96,14.11,1.18,1.27,3.28,1.67,4.29,2.86,1.18,1.38.52,4.18,2.21,4.43.98.15,1.76-1.18,2.58-1.5,1.4-.54,2.77-.64,4.26-.6,2.77.08,5.64.75,8.07,2.07,5.65,3.08,7.74,7.76.95,10.57-2.72,1.13-5.68,1.97-8.63,2.23-3.23.29-6.5-.72-9.7-.33-6.16.76-8.06,5.92-9.66,11.21-2.19,7.29-3.97,14.67-6.43,21.88-2.01,5.89-5.67,11.88-6.73,18.04-.65,3.78.2,3.5,2.73,5.84,1.92,1.78,3.08,4.12,5.16,5.9,5.81,4.98,10.87,3.65,17.61,1.59h0ZM939.45,791.44c.18-1.3,27.71,1.18,30.83.86,5.34-.55,11.03.91,16.56.73,4.88-.17,11.93-2.06,15.96.31,1.49.88,1.53,1.92,3.89,1.47,2.19-.42,4.5-1.97,6.14-3.4,4.57-4,7.36-10.29,10.35-15.47,5.98-10.38,11.1-21.13,16.07-32.04,10.23-22.48,20.06-45.08,30.28-67.56,5.05-11.12,9.92-22.26,15.37-33.17,2.33-4.66,4.88-9.77,6.67-14.65,1.95-5.32,4.52-10.32,6.27-15.77,3.71-11.55,8.14-22.93,10.97-34.82.72-3.01.99-6.16,1.85-9.12.92-3.17,2.81-5.88,3.99-8.94,1.21-3.12,1.21-5.91,1.81-9.11.6-3.18,2.06-6.28,3.11-9.33,5.42,3.27,11.59,6.24,16.58,10.13,4.91,3.82,12.07,7.03,10.01,13.94-1.87,6.29-5.18,12.07-7.14,18.34-2.21,7.04-4.92,13.93-7.05,20.99-4.57,15.15-8.58,30.49-12.67,45.78-1.92,7.18-4.33,14.38-5.74,21.69-.73,3.8-.61,7.2-2,10.88-1.35,3.6-2.63,7.12-3.74,10.81-1.97,6.56-3.86,13.13-6.04,19.62-1.18,3.51-2.13,7.07-2.97,10.67-.51,2.18-2.24,6.38-1.75,8.63,1.4,6.5,10-.12,12.06-2.78,4.77-6.16,8.2-13.69,11.78-20.58,14.36-27.68,21.42-57.53,28.82-87.66,1.95-7.92,3.83-15.77,6.01-23.61,2.29-8.21,2.96-16.8,5.66-24.97,2.8-8.44,5.65-16.57,7.7-25.26.95-4.02,1.95-8.04,2.8-12.08.45-2.16.47-6.13,3.34-6.56-1.85,13.55-2.54,29.42-7.93,42.13-4.89,11.52-8.78,27.31-3.84,39.55,2.38,5.88,6.14,10.91,8.97,16.51,3.16,6.27,5.23,13.46,7.35,20.14,4.39,13.83,5.69,28.37,8.63,42.52,1.54,7.41,1.57,12.49.23,19.78-.43,2.35.33,4.22-1.65,5.72-1.99,1.51-6.59,1.82-9.05,2.69-7.47,2.64-13.88,4.57-21.79,5.44-7.47.82-14.48,2.3-21.59,4.75-12.82,4.41-26.14,7.7-38.74,12.12-6.89,2.42-13.53,6.72-20.15,9.81-6.89,3.21-14.19,5.31-20.69,9.32-6.99,4.32-13.91,9.33-20.54,14.17-6.14,4.48-9.08,10.06-11.64,17.04-4.86,13.27-17.11,30.48-5.79,43.87-3.97,1.72-8.51,2.41-12.31,4.25-1.31.64-1.7,1.26-3.2,1.62-1.95.48-4.46.1-6.46.23-2.89.19-8.98,2.27-11.8,1.43-2.63-.79-2.75-4.61-4.64-6.49-2.81-2.8-5.5-.99-8.93-1.3-5.08-.46-10.15-1.13-15.24-1.57-10.27-.89-20.5-1.11-30.8-1.08,5.36-5.95,25.08,4.88,25.57-5.9.56-12.47-14.66-8.73-22.07-12.33,6.73.2,13.45.26,20.17.8,4.07.32,11.91,2.27,14.21-2.2,2.48-4.81-1.51-10.38-5.24-12.9-5.16-3.48-11.13-5.7-16.84-8.08h0ZM1500.53,625.12c1.23,2.46-.68,3.45-1.54,5.43-1.2,2.74-.01,2.19.23,4.77.16,1.73-.31,2.55-.21,4.16.04.69,1.02,1.6,1.14,2.39.21,1.41-.55,2.05-.47,3.08.04.51-.62.6-.48,1.33.12.64,1.59,1.09,1.68,1.49.5,2.34-.9,1.17-1.11,2.28-.36,1.85.68,2.17,1.27,3.87,1.02,2.93.03,4.3-.6,7.05-.53,2.32.26,2.33.56,4.55.18,1.34-.21,1.51-.2,2.76.02,4.31.98,8.8,1.02,13.37.1,10.82,1.01,21.48,1.15,32.27.13,10.6.91,21.34,1.37,32.08.23,5.23.76,10.45.99,15.69.27,6.08-.33,12.13.18,18.19.46,5.5.19,11.03.41,16.55.11,2.62,1.46,10.54-.26,12.3-2.23,2.29-11.29-.15-14.21.01-5.5.3-11.31,1.41-16.7,2.54-12.78,2.69-25.59,6.12-38.38,8.54-10.66,2.01-20.66,7.13-30.59,11.47.91-9.12,2.51-18.01,2.81-27.2.27-8.26-.51-16.47-.33-24.72.39-17.6,1.39-35,.99-52.6-.4-17.89-1.84-36.16-4.33-53.88-1.14-8.14-2.04-16.82-4.95-24.55-1.32-3.51-3.47-6.08-2.58-9.93.97-4.18,2.88-8.54,4.29-12.59,1.04,6.6,4.7,50.55,19.72,37.34,5.87-5.16,8.58-16.34,9.9-23.66,1.77-9.9,1.14-20.31,1.09-30.33-.09-20.41-2.34-41.24-4.4-61.54-.41-4.05-2.46-7.68,2.74-7.49,4.88.18,9.89,1.34,14.74,1.91,4.2.49,8.41-.71,12.41-.17,1.83.25,3.46,1.33,5.31,1.61,2.34.35,4.78-.16,7.13-.16,3.96,0,8.56-.02,11.85,2.45,3.46,2.59,6.42,6.88,7.58,11.02,1.16,4.15.85,8.81,1.58,12.96.62,3.49.75,7.8,1.33,11.76,2.51-3.14,2.35,1.39,2.38,2.74.03,1.62,1.77,4.9,1.33,5.85-.29.61-2.24.29-2.4.77-.34.99.83,1.41.86,2.15.08,2.88-.08,5.87-.07,8.77.68-.52,1.36-1.04,2.04-1.56.36.78.47,1.79.81,2.58.15.36,1.59.26,1.66.96.09.92-1.92,2.69-2.31,3.69-.7,1.79-1.14,1.09.04,3.02,1.36,2.23,3.58,2.35,3.22,5.59-.72-.55-1.34-1.19-1.88-1.92-.34,1.93.5,3.64.61,5.56.07,1.26-1.46,6.28-.31,7.12.49.35,1.78-1.58,1.9-1.71h0ZM1399.14,466.71c0-4.24,6.18-10.76,8.31-14.3,3.39-5.66,7.04-10.78,11.36-15.78,4.34-5.02,8.96-9.81,13.17-14.95,1.74-2.12,3.03-4.6,4.8-6.68,2.22-2.6,2.69-1.8,5.43-1.73,2.09.05,3.45-.3,5.38.32,1.03.33,1.69.82,2.79,1.12.69.19,1.6-.48,2.52-.15,2.29.8,3.07,2.84,5.83,2.79.33,0,1.39-.79,1.54-.75.19.05,1.04.71,1.01.7.18.04.13,1.34.62,1.57.84.39,1.43-.91,2.19-.82,1.93.21,3.36,2.2,5.49,2.68,2.74.62,5.11-.28,7.73.99,2.09,1.02,3.15,3.33,4.89.94,1.57,3.34,4.47,2.33,7.37,3.74,4.04,1.96,8.41,2.96,12.71,4.44,8.85,3.05,17.76,6.18,26.38,9.86,17.89,7.62,35.21,16.08,52.7,24.27,17.1,8.02,32.92,18.64,48.32,29.35,7.55,5.24,15.05,10.76,20.94,17.94,1.78,2.18,4.76,5.56,3.56,8.62-1.27,3.24-6.65,5.25-9.69,5.87-3.99.82-8.37,1.09-12.43,1.36-4.38.29-9.09.44-13.42.38-8.55-.12-16.93-.95-25.51-1.14-9.77-.22-19.34-2.28-29.09-2.4-10.72-.13-21.31-1.48-32.04-1.06-20.68.81-41.35,1.41-62.1,1.51-2.58.01-5.11-.3-7.65.15-2.06.36-3.54,1.08-5.75.93-2.06-.15-3.96-1.05-6.05-1.15-2.75-.14-5.57.31-8.33.25-9.33-.19-20.4-1.04-29.4,1.91-3.57,1.17-8.07,4.59-5.89,9.01,2.15,4.38,7.66.81,11.06,2.8,3.17,1.85,1.41,6.91,1.19,9.93-.42,5.73-.5,11.43-.35,17.17.33,12.68,1.11,25.34,1.25,38.02.07,6.16-.02,12.32-.34,18.47-.29,5.43-.1,11.34-1.95,16.52-2.58-6.47-2.9-13.61-3.93-20.43-1.11-7.38-2.19-14.75-3.25-22.13-.63-4.39-1.28-30.73-9.86-27.29-9.12,3.66-5.95,23.92-6.37,31.21-.39,6.88-1.09,13.73-2.65,20.45-.73,3.12-2.72,16.39-6.72,17.24-2.94-13.88-6.04-27.74-8.2-41.76-.95-6.19-1.79-12.43-2.17-18.69-.2-3.26.04-11.08-4.66-11.46-13.84-1.11-4.55,57.18-14.89,64.52-3.82-7.61-5.32-15.54-6.36-23.97-.47-3.84-1.48-8.16-.89-12.01.78-5.04,1.63-8.12.58-13.33-.86-4.26-1.48-8.64-2.47-12.86-.72-3.04-2.59-4.53-3.57-7.28-2.78-7.73-2.6-17.51-3.71-25.63-1.12-8.22-2.31-16.3-.85-24.58,1.44-8.21,7.45-10.82,14.27-14.21,6.88-3.41,13.52-7.17,21.07-8.67,8.48-1.69,16.27-3.33,24.95-3.78,15.32-.79,30.34.13,45.59.85,16.96.81,33.94-.2,50.89-.43,8.24-.11,16.63-.27,24.86-.14,4.12.07,8.12.78,12.27.68,3.54-.09,10.44,1,13.54-.88,2.43-1.47,2.42-4.74.38-6.54-2.03-1.79-6.01-1.88-8.55-2.43-8.1-1.76-16.18-2.77-24.35-4.18-4.7-.81-8.65-1.08-13.36-.85-4.57.22-9.24-1.08-13.87-1.31-9.8-.47-19.66-.93-29.47-1.09-19.01-.3-37.8-1.75-56.82-1.7h0ZM1389.22,652.64c1.53.59,1.14,7.9,1.28,9.35.41,4.37.87,8.73,1.26,13.1.9,10.09,1.57,20.2,2.13,30.32.55,10.12,1.21,20.26,1.17,30.4-.01,4.31-.21,8.62-.12,12.94.07,3.22,1.48,9.26-1.27,11.55-1.85,1.54-5.46.84-7.62.7-4.26-.28-8.54-.56-12.81-.6-4.94-.04-9.84.49-14.78.36-1.9-.05-4.01-.37-5.89,0-1.36.26-2.84,1.43-4.12,1.48-.94.04-2.15-.89-3.19-1.08-1.61-.28-3.51.04-5.15.03-1.17-.01-3.98-.54-5.06.15-1.05.67-.64,2.2-1.6,2.54-.36.13-2.44-2.34-2.8-2.49-1.59-.69-3.91-.15-5.59-.14-4.83.05-9.66-.25-14.49-.21-4.71.04-9.25.59-13.77,1.14-2.99.36-6.42-.54-9.59-.81-5.07-.42-10.16-.35-15.25-.24-2.55.05-5.11.09-7.66.15-.6.01-1.8-.22-2.38-.05-2.34.7-.86.74-2.51,1.81,2.17-1.4-4.86-2.32-5.26-2.32-3.19-.02-6.11,1.54-8.77,1.24-2.88-.33-5.81-2.11-8.98-1.56-1.48.26-2.71,1.91-3.81,2.1-1.78.31-2.38-.98-4.01-1.62-3.25-1.28-7.02-.16-10.41-.39-4.76-.31-9.35-.32-14.13-.39-8.72-.12-17.44-.26-26.17-.17-8.03.08-14.49,3.3-22.48,3.12-4.19-.09-8.45-.46-12.63-.36-3.59.08-5.43,2.76-2.71,5.91,1.84,2.13,5.21,2.35,7.8,2.74,3.84.58,7.62,1.41,11.45,2.05,9.11,1.53,18.64,1.48,27.85,1.76,37.57,1.13,75.15,4.47,112.74,4.82,16.51.16,33.19,1.55,49.64.9,9.18-.36,18.15,1.61,27.4.19,3.9-.6,7.73-.96,11.67-1.24.51-.04,3.52-.62,4.08-.36,1.68.76.74.07,1.44,2,1.15,3.18.67,8.26.67,11.65-.01,5.4-.27,10.81-.46,16.21-.17,5.17-.46,10.34-.77,15.5-.13,2.14.71,10.17-.93,11.77-1.27,1.23-7.24.65-8.85.3-1.94-.41-2.12-.52-4.21-.27-1.55.18-2.1.14-3.64-.03-4.43-.48-9.51-.56-13.96.24-3.45.62-7.08-1.02-8.4,2.61-2.24-2.74-2.18-1.16-4.64-.61-2.53.57-1.75-1.07-3.9-1.29-1.51-.16-2.86,1.04-4.49,1.05-2.7.02-5.13-.7-8.01-.34-12.74,1.59-25.66,3.02-38.51,3.14-5.33.05-10.6.13-15.9.29-2.7.08-5.26.36-7.92.68-2.51.3-4.48-.3-7.08-.43-5.76-.29-11.81.58-17.57.9-2.71.15-6.1-.32-8.7.04-2.61.36-2.81,2.34-4.89,3.49-.33-6.44-13.79-2.31-17.29-2.31-1.38,0-3.06-.58-4.72-.48-2.75.18-5.52.22-8.27.32-4.39.15-8.63.42-12.8-.11-5.45-.69-11.37.05-16.87.01-5.99-.04-11.98-.12-17.97-.32-6.07-.2-12.12-.57-18.19-.76-5.27-.17-10.86.26-16.06-.13-1.35-.1-2.63-1.09-3.84-1.14-1.67-.07-3.54.65-5.46.48-6.07-.52-11.73-.6-17.86-.58-10.53.04-21.46-1.91-31.55-4.7-4.65-1.28-9.49-1.35-14.11-2.73-5.33-1.59-10.22-4.37-15.12-6.93-3.84-2.01-9.25-2.95-7.68-8.04,1.67-5.43,4.34-10.7,6.33-16.03,1.73-4.64,2.83-9.16,6.58-12.65,3.7-3.45,8.43-5.76,12.38-8.94,8.6-6.93,17.57-11.07,27.75-15.17,10.26-4.14,19.62-10.24,30.4-12.99,10.01-2.55,19.65-5.98,29.46-8.59,10.73-2.86,21.79-3.9,32.61-6.45,10.37-2.44,20.55-6.03,31.06-7.89,11.37-2.01,22.84-3.04,34.17-5.49,9.6-2.08,18.77-6.15,28.42-7.77,2.82-.48,5.87-.77,8.6-1.65,2.55-.83,4.38-2.51,6.96-3.19,5.96-1.57,11.13-3.71,16.77-6.26,2.37-1.07,3.68-2.39,5.74-3.72,2.45-1.58,5.59-2.15,8.34-3.02,5.3-1.68,10.58-3.34,15.33-6.29,4.93-3.06,9.45-6.52,13.99-10.1,1.92-1.51,3.98-3.04,5.94-4.45,2.43-1.74,4.91-2.06,7.63-3.2,11.79-4.95,16.96-16.56,23.38-26.67.6,8.19,8.43,11.98,13.26,4.2h0ZM1221.61,509.26c-.81-3.67-1.97-8.93,2.6-9.13.29-.01,3.32.74,3.63.94,1.56,1,2.15,4.34,2.74,5.96.52,1.43.89,3.33,2.05,4.41,1.15,1.07,2.34,1.09,3.41,2.37,3.26,3.89,5.68,10.57,7.65,15.26-2.67-.65-.73,1.15-1.87,2.17-1.77,1.59-1.22,1.31-3.74,1.55-4.4.43-6.4-.74-9.84-3.48-2.92-2.32-3.85-3.84-5.53-7.2-2.4-4.79-1.23-7.84-1.1-12.87-1.2,1.11-2.41,2.21-3.61,3.32.37-1.45.75-2.9,1.12-4.35l2.48,1.03ZM1348.07,219.79c-2.34-8-6.7-8.59-12.57-2.84-.93-2.06-2.03-5.25-4.74-5.23-1.92.01-2.26,1.56-3.54,2.61-1.55,1.27-2.76,1.71-4.73,2.05-4.3.73-8.29.48-12.34,2.4-3.69,1.75-5.44,4.31-8.28,6.93-2.65,2.45-4.59.86-7.62,2.1-3.37,1.38-4.88,5.46-5.53,8.77-.8,4.05.03,5.34-2.78,8.28-2.65,2.77-4.06,6.3-4.38,10.11-.3,3.6.49,7.88,2.57,10.92,2.34,3.42,4.77,2.48,1.72,6.54-1.53,2.05-1.71,6.4-3.55,7.72-3.23,2.29-7.4-1.41-10.25-2.34-3.87-1.26-3.01.85-4.71,3.4-2.51,3.77-4-.12-7.43.63-1.26.28-1.63,1.64-2.07,1.8-1.56.58.1.36-1.69-.28-1.19-.43-.37-2.73-2.77-1.42-1.66.91-.41,2.54-1.17,3.72-1.48,2.32-3.69.97-4.79,3.96-1.09,2.98-2.57,6.93-3.18,10.18-.74,3.95,1,7.4.74,11.14-.27,3.91-4.14,6.54-6.55,9.28-11.81,13.42-16.81,31.08-20.66,48.15-3.58,15.86,2.72,33.82,15.1,44.57,6.27,5.45,14.11,7.79,20.13,13.78,2.67,2.66,2.64,3.51-.55,5.69-2.61,1.79-5,4.06-7.77,5.48-7.11,3.63-14.04,6.22-21.98,7.75-4,.77-8.17.46-12.22.32-4.22-.15-8.98.45-13.1-.07-3.64-.46-6.52-3.39-10.33-3.08-1.49.12-2.41.69-3.93.56-2-.18-3.68-1.23-5.8-1.18-3.23.08-6.42.14-9.55.25-3.55.13-7.71-.84-11.24-.23-3.35.58-7.33,3.59-10.24,5.35-3.59,2.17-7.9,4.67-11.12,7.31-3.04,2.5-5.18,6.48-7.55,9.58-2.51,3.28-5.4,6.22-7.92,9.49-9.92,12.87-20.36,28.72-23.47,44.92-.78,4.1-.74,8.15-.15,12.27.53,3.68,3.98,5.08,4.09,9.03.21,8-3.62,17.28-5.85,24.86-2.34,7.99-5.28,15.74-8.92,23.25-1.41,2.91-3.19,5.31-4.08,8.32-1.08,3.68-2.73,7.17-3.93,10.88-10.43,32.1-26.59,61.98-38.37,93.59-6.33,16.99-13.03,33.83-19.93,50.6-3.4,8.26-7.08,16.26-10.77,24.39-.49,1.07-.83,3.13-1.68,3.86-1.43,1.24-.17.54-2.17.32-1.73-.18-3.52-.97-5.26-1.26-4.2-.71-8.51-.83-12.75-1.25-4.87-.48-9.16-.73-14.04-.5-4.54.22-9-1.13-13.52-1.43-9.68-.64-19.23-.3-28.9-.12-7.54.14-17.19-.76-24.16,2.74-6.99,3.51-4.58,11.58,1.35,14.65,7.1,3.68,15.46,4.21,22.52,7.97-5.3,1.63-11.02,1.21-16.41,2.48-3.48.82-8.85,1.43-11.47,3.96-2.54,2.46-2.28,6.69-.61,9.58,2.09,3.59,6.1,4.21,9.71,5.45-1.63,2.16-4.16,1.99-5.62,4.83-1.94,3.78-.73,7.82,1.65,11.08,5.17,7.09,15.41,7.69,23.4,8.7,7.85.99,16.1,1.23,24,.69,4.5-.31,8.95-.53,13.4-1.17,5.12-.73,4.62,2.86,6.45,6.52,1.76,3.55,4.31,5.07,8.25,4.86,4.25-.24,8.97-.53,13.18-1.24,4.03-.68,7.53-2.77,11.4-3.63,3.48-.78,6.25-2.05,9.56-3.74,3.8-1.95,5.82-5.2,9.15-7.43,3.41-2.29,6.99,1.31,10.34,3.1,8.16,4.36,17.11,6.29,26.04,8.43,9.1,2.19,17.96,4.98,27.22,6.5,4.31.7,8.4.61,12.68,1.07,4.94.53,9.22,2.41,14.27,2.42,17.82.04,35.75,3.25,53.57,3.85,17.64.59,35.58-.87,53.2.31,9.01.61,17.73-.61,26.7-.14,9.24.48,18.82,0,28.04-.71,19.15-1.47,37.7-1.08,56.64-2.03,9.85-.49,19.9-1.42,29.63-2.99,9.54-1.53,20.34.23,27.09-8.07.74,3.25.94,6.63,3.32,9.19,2.5,2.7,6.53,3.79,9.88,5.02,8.55,3.14,17.19,6.12,25.8,9.09,8.16,2.82,16.37,5.88,24.6,8.47,8.64,2.72,16.87,6.02,25.37,9.21,7.7,2.89,15.68,5.18,23.1,8.66,3.06,1.44,6.27,1.56,9.19,2.9,3.61,1.66,6.97,3.25,10.84,4.45,3.32,1.03,6.36,1.76,9.57,3.1,3.18,1.32,7.69,3.61,11.02,1.86,2.34-1.23,3.26-4.07,3.98-6.44.9-2.96.13-8.1,3.64-7.97,3.46.13,8.35,3.47,11.75,4.6,4.06,1.35,8.22,3.62,12.41,4.39,4.19.77,7.49.54,9.69-3.36,2.47-4.38,2.06-9.03,1.32-13.8,7.13-.02,13.74.65,20.93.9,3.96.14,7.82.31,11.77-.13,3.57-.39,8.87.73,11.96-.91,6.29-3.32,5.35-12.71,2.18-17.84-1.76-2.85-4.52-4.77-7.33-6.5-3.52-2.17-6.1-4.63-9.18-7.39,2.01-1.39,4.62-.71,6.6-2.36,1.53-1.28,2.48-3.42,3.18-5.24,1.3-3.4-.38-11.19,2.56-13.11,1.57-1.03,4.35-.59,6.15-1.42,2.45-1.12,4.17-3.2,5.23-5.67,2.38-5.57.34-11.36-1.98-16.56,8.79-1.5,21.68-2.1,24.19-12.27.8-3.25.91-7.02-.19-10.21-1.64-4.74-5.47-5-9.71-6.39-17.73-5.82-34.33-15.27-53.43-16.67-10.23-.75-20.53-1.15-30.75-2.21-10.26-1.07-20.16-2.95-30.49-1.67-4.4.54-9.48.06-13.69.85-4.07.77-4.58,5.56-1.47,8.33,3.02,2.69,7.4.97,11,1.27,5.1.43,9.39,2.84,14.15,4.36,11.67,3.73,24.47,6.37,36.64,7.71,6.54.72,12.71.81,19.11,2.56,5.81,1.58,11.56,3.38,17.4,4.9-6.37,1.7-18.72,1.51-20.84,9.28-1,3.65.11,8.71,3.32,10.97,1.86,1.31,5.94.71,7.11,2.67-5.02.62-10.74-3.24-13.49,2.28-3.14,6.3-.07,11.27,3.95,15.95-3.55-.59-7.21.08-10.79-.37-2.77-.35-5.36-1.18-7.99-.32-1.32.43-1.15,1.61-2.81,1.62-1.21,0-3.03-1.31-4.08-1.82-4-1.93-8.06-3.5-12.19-5.11-5.03-1.96-9.81-3.47-14.82-4.7-6.93-1.7-13.88-6.06-20.64-8.53-2.86-1.04-6.55-2.12-7.97-5.1-1.47-3.08-.34-7.58-.25-10.83.26-9.15.15-18.32.09-27.47-.05-7.7-.23-15.25-.92-22.92-.82-9.18-.09-18.32-.44-27.51-.32-8.44.43-16.86.2-25.3-.26-9.4-.73-18.76-.82-28.17-.17-16.9-.74-33.79-1.07-50.68-.34-17.36-2.18-34.73-5.89-51.7-1.66-7.6-3.83-15.35-6.72-22.57-.92-2.29-1.88-2.42.33-3.73,1.31-.77,2.92.09,4.2.26,2.69.36,5.1.52,7.84.36,15.72-.92,31.99-.18,47.65,1.24,8.15.74,16.33,1.43,24.51,1.73,8.16.29,16.31,1.55,24.47.96,13.67-1,29.26.56,40.97-8.24,12.5-9.39,11.32-26.03,3.25-38.06-8.91-13.27-23.78-20.83-36.21-30.13-12.21-9.14-26.55-15.84-39.86-23.19-28.5-15.75-59.11-30.33-89.8-41.21-31.21-11.07-62.53-23.8-96.53-21.64-17.22,1.1-36.49,1.74-51.68,10.89-8.12,4.89-15.97,9.99-22.95,16.45-3.29,3.04-6.18,6.79-9.68,9.57-3.25,2.58-6.44.82-10.15-.14,2.63-8.49,5.26-16.99,7.9-25.48,3.63,2.82,8.64,3.89,13.36,2.9,5.74-1.21,5.27-3.66,4.76-8.57-.24-2.28-.86-1.89,1.12-3.33,1.62-1.18,4.58-1.57,6.45-2.59,4.65-2.55,8.69-6.29,10.4-11.43,1.71-5.11.5-9.85-.62-14.92-1.34-6.1,1.98-3.55,5.77-6.39,1.67-1.25,2.27-2.33,1.98-4.39-.23-1.67-3.54-4.08-3.39-5.73.18-1.99,1.28-1.76,2.85-2.96,1.73-1.32,2.98-2.94,3.74-5.02,1.62-4.4-1.68-7.12-3.06-11.18-.67-1.97-1.33-3.65-2.65-5.31-2.33-2.93-3.24-2.87-6.49-2.84-2.74.02-2.71-.2-4.76-2.68-.8-.96-1.59-1.92-2.28-2.96-1.18-1.79-1.51-1.55-.25-2.95,3.85-4.26,5.61,2.39,9.03,1.99,3.96-.46,4.67-6.74,7.15-8.84,1.74-1.47,3.72-.91,5.61-1.9,2.32-1.21,2.79-3.52,4.3-5.46,2.45-3.14,6-3.69,7.63-7.68.93-2.26,1.05-4.59,1.24-6.99.27-3.41,1.16-6.11,2.15-9.36,1.01-3.31.76-5.71-.88-8.76-1.7-3.14-1.9-4.2-1.47-7.74.32-2.7.42-5.09-.98-7.5-1.52-2.59-1.83-3.95-2.33-6.9-.43-2.59-1.25-4.46-3.76-5.53-1.71-.73-3.55.08-4.76-1.59-1.2-1.67-.88-4.34-2.12-6.18-2.02-3-5.05-3.47-8.35-4.15h0Z" style="fill: #010101; fill-rule: evenodd;"/>
        <path id="react-path-124" d="M1248.26,353.23c1.17-2.75,5.09-15.45-1.36-15.52-5.12-.05-3.5,10.97-3.56,13.67-.12,5.06-5.41,5.78-7.4,10.38-2.31,5.35-.72,11.75,2.89,16.11,2.75,3.33,8.04,7.15,11.82,3.07,4.2-4.54.16-7.08-2.78-9.91-4.26-4.1,3.89-5.29,6.01-8.61,3.6-5.65-.35-8.58-5.63-9.2" style="fill: #010101; fill-rule: evenodd;"/>
        <path id="react-path-125" d="M1266.74,356.1c.59,2.61.41,8.58,3.25,9.99,4.76,2.36,5.86-9.03,5.83-11.55-.04-2.68-.97-9-4.91-8.18-4.43.92-1.92,9.12-4.16,9.74" style="fill: #010101; fill-rule: evenodd;"/>
        <path id="react-path-126" d="M1248.92,389.2c-7.04.22-6.65,8.62.11,8.91,6.28.27,6.13-9.1-.11-8.91" style="fill: #010101; fill-rule: evenodd;"/>
        <path id="react-path-127" d="M1233.94,514.37c.66,2.8,2.19,5.44,4.49,7.2-.54-1.11-2.89-7.7-4.49-7.2" style="fill: #010101; fill-rule: evenodd;"/>
      </g>
    </g>
  </g>
</svg>