<?xml version="1.0" encoding="UTF-8"?>
<svg id="Layer_2" data-name="Layer 2" xmlns="http://www.w3.org/2000/svg" viewBox="0 0 90.74 90.74">
  <defs>
    <style>
      .cls-1 {
        fill: #f0f7a0;
      }

      .cls-2 {
        fill: #e97ec8;
      }
    </style>
  </defs>
  <g id="Layer_2-2" data-name="Layer 2">
    <g>
      <circle class="cls-1" cx="45.37" cy="45.37" r="45.37"/>
      <g>
        <path class="cls-2" d="M45.4,45.41l-10.08,25.83c-2.7,6.92,2.16,14.57,9.58,14.83.13,0,.26,0,.39,0,.39,0,.78-.02,1.16-.06,7.05-.73,11.4-8.08,8.87-14.7l-9.91-25.91Z"/>
        <path class="cls-2" d="M45.42,45.37l17.33,21.65c4.64,5.8,13.7,5.41,17.63-.88.07-.11.13-.22.2-.33.2-.34.37-.68.53-1.03,2.89-6.47-1.3-13.91-8.29-15.03l-27.4-4.37Z"/>
        <path class="cls-2" d="M45.4,45.33l27.41-4.19c7.34-1.12,11.54-9.16,8.05-15.71-.06-.11-.12-.23-.19-.34-.2-.34-.41-.66-.63-.97-4.15-5.74-12.7-5.83-17.16-.33l-17.48,21.54Z"/>
        <path class="cls-2" d="M45.35,45.33l10.08-25.83c2.7-6.92-2.16-14.57-9.58-14.83-.13,0-.26,0-.39,0-.39,0-.78.02-1.16.06-7.05.73-11.4,8.08-8.87,14.7l9.91,25.91Z"/>
        <path class="cls-2" d="M45.32,45.37l-17.33-21.65c-4.64-5.8-13.7-5.41-17.63.88-.07.11-.13.22-.2.33-.2.34-.37.68-.53,1.03-2.89,6.47,1.3,13.91,8.29,15.03l27.4,4.37Z"/>
        <path class="cls-2" d="M45.35,45.41l-27.41,4.19c-7.34,1.12-11.54,9.16-8.05,15.71.06.11.12.23.19.34.2.34.41.66.63.97,4.15,5.74,12.7,5.83,17.16.33l17.48-21.54Z"/>
      </g>
    </g>
  </g>
</svg>