<?xml version="1.0" encoding="UTF-8"?>
<svg id="Layer_2" data-name="Layer 2" xmlns="http://www.w3.org/2000/svg" viewBox="0 0 133.44 59.83">
  <defs>
    <style>
      .cls-1 {
        fill: #db8764;
      }
    </style>
  </defs>
  <g id="Layer_2-2" data-name="Layer 2">
    <path class="cls-1" d="M2.47,27.12c4.34,7,8.57,15.41,14.37,21.31,7.19,7.32,17.04,10.12,27.03,8.32,7.69-1.39,15.6-6.82,22.48-10.37.93-.48,1.89-.92,2.79-1.44,3.42-1.97.66.58-2.93.39l-5.16-1.18c-2.03-1.58-2.08-1.58-.16-.02,6.45,5.37,13.93,12.35,22.24,14.67,21.05,5.88,31.87-14.98,45.07-26.69,7.07-6.27,6.87-19.15,0-25.46C120.67-.26,110.29-.03,102.76,6.66c-4.95,4.39-9.51,9.12-13.73,14.21-1.04,1.26-2.14,2.48-3.16,3.75l-1.15,1.15c.83-.96,1.91-1.43,3.24-1.41,2.41-.97,4.81-.72,7.2.76l-1.16-.71c-1.29-1.03-2.74-1.95-4.08-2.92l-1.46-1.1c.99.77,1,.77.04.01-1.19-.95-2.35-1.93-3.54-2.89-3.73-3.01-7.03-5.78-11.76-7.13-7.93-2.27-15.4.02-22.52,3.64-5.15,2.62-10.29,5.29-15.42,7.96-.42.22-.99.39-1.35.7,1.56-1.31,4.16-1.49,6.05-.92,1.02.27,1.88.78,2.58,1.52.78.58,1.36,1.32,1.74,2.23-1.65-.7-3.95-5.93-4.95-7.48-1.95-3.01-3.87-6.04-5.76-9.09C28.6.95,17.25-2.87,8.93,2.49S-2.84,18.56,2.47,27.12h0Z"/>
  </g>
</svg>